<mxfile host="app.diagrams.net" modified="2023-08-15T21:50:58.807Z" agent="Mozilla/5.0 (Windows NT 10.0; Win64; x64) AppleWebKit/537.36 (KHTML, like Gecko) Chrome/115.0.0.0 Safari/537.36" etag="CBfbwO33hgHfYkUtm4H4" version="21.6.8" type="google">
  <diagram name="Page-1" id="Za4d9AhhTPXJQDslBrML">
    <mxGraphModel grid="1" page="1" gridSize="10" guides="1" tooltips="1" connect="1" arrows="1" fold="1" pageScale="1" pageWidth="5000" pageHeight="5500" math="0" shadow="0">
      <root>
        <mxCell id="0" />
        <mxCell id="1" parent="0" />
        <mxCell id="3zjKq_lo-pIBi0YAWd8p-1" value="start" style="ellipse;whiteSpace=wrap;html=1;" vertex="1" parent="1">
          <mxGeometry x="1825" width="120" height="80" as="geometry" />
        </mxCell>
        <mxCell id="V6oRm1_Ef8_PO-AJIa_W-1" value="" style="endArrow=classic;html=1;rounded=0;" edge="1" parent="1" source="3zjKq_lo-pIBi0YAWd8p-1">
          <mxGeometry width="50" height="50" relative="1" as="geometry">
            <mxPoint x="1885" y="130" as="sourcePoint" />
            <mxPoint x="1885" y="150.71067811865476" as="targetPoint" />
          </mxGeometry>
        </mxCell>
        <mxCell id="V6oRm1_Ef8_PO-AJIa_W-2" value="&lt;div&gt;final int INTMAXROUNDS = 1000&lt;/div&gt;&lt;div&gt;&lt;span style=&quot;background-color: initial;&quot;&gt;DecimalFormat df2 = new DecimalFormat(&quot;0.00&quot;)&lt;/span&gt;&lt;span style=&quot;background-color: initial;&quot;&gt;&amp;nbsp;&amp;nbsp;&lt;/span&gt;&lt;/div&gt;&lt;div&gt;&lt;span style=&quot;background-color: initial;&quot;&gt;intRoundsLeft = 5,&amp;nbsp;&lt;/span&gt;&lt;span style=&quot;background-color: initial;&quot;&gt;intRoundsTot = 5&lt;/span&gt;&lt;/div&gt;&lt;div&gt;&lt;span style=&quot;background-color: initial;&quot;&gt;String [] strRPS = {&quot;rock&quot;,&quot;paper&quot;,&quot;scissors&quot;}&lt;/span&gt;&lt;/div&gt;&lt;div&gt;&lt;span style=&quot;background-color: initial;&quot;&gt;int intWins = 0, intTies = 0, intLosses = 0, intRocks = 0, intPapers = 0, intScissors = 0;&lt;/span&gt;&lt;span style=&quot;background-color: initial;&quot;&gt;&amp;nbsp; &amp;nbsp;&amp;nbsp;&lt;/span&gt;&lt;/div&gt;&lt;div&gt;&lt;span style=&quot;background-color: initial;&quot;&gt;int [] intUsersPastObj = new int[INTMAXROUNDS], intComputerPastObj = new int[INTMAXROUNDS], intPastResults = new int[INTMAXROUNDS]&lt;/span&gt;&lt;/div&gt;" style="rounded=0;whiteSpace=wrap;html=1;" vertex="1" parent="1">
          <mxGeometry x="1645" y="150" width="480" height="120" as="geometry" />
        </mxCell>
        <mxCell id="V6oRm1_Ef8_PO-AJIa_W-3" value="" style="endArrow=classic;html=1;rounded=0;" edge="1" parent="1" source="V6oRm1_Ef8_PO-AJIa_W-2">
          <mxGeometry width="50" height="50" relative="1" as="geometry">
            <mxPoint x="1885" y="320" as="sourcePoint" />
            <mxPoint x="1885" y="340.71067811865476" as="targetPoint" />
          </mxGeometry>
        </mxCell>
        <mxCell id="V6oRm1_Ef8_PO-AJIa_W-4" value="" style="endArrow=classic;html=1;rounded=0;" edge="1" parent="1">
          <mxGeometry width="50" height="50" relative="1" as="geometry">
            <mxPoint x="2830" y="550" as="sourcePoint" />
            <mxPoint x="2140" y="550" as="targetPoint" />
          </mxGeometry>
        </mxCell>
        <mxCell id="V6oRm1_Ef8_PO-AJIa_W-5" value="" style="endArrow=classic;html=1;rounded=0;" edge="1" parent="1">
          <mxGeometry width="50" height="50" relative="1" as="geometry">
            <mxPoint x="2830" y="550" as="sourcePoint" />
            <mxPoint x="4540" y="540" as="targetPoint" />
          </mxGeometry>
        </mxCell>
        <mxCell id="V6oRm1_Ef8_PO-AJIa_W-6" value="" style="endArrow=classic;html=1;rounded=0;" edge="1" parent="1">
          <mxGeometry width="50" height="50" relative="1" as="geometry">
            <mxPoint x="2140" y="550" as="sourcePoint" />
            <mxPoint x="2140" y="650" as="targetPoint" />
          </mxGeometry>
        </mxCell>
        <mxCell id="V6oRm1_Ef8_PO-AJIa_W-7" value="btnConfirmNumRounds is clicked" style="rhombus;whiteSpace=wrap;html=1;" vertex="1" parent="1">
          <mxGeometry x="2010" y="650" width="260" height="80" as="geometry" />
        </mxCell>
        <mxCell id="V6oRm1_Ef8_PO-AJIa_W-8" value="" style="endArrow=classic;html=1;rounded=0;" edge="1" parent="1" source="V6oRm1_Ef8_PO-AJIa_W-7">
          <mxGeometry width="50" height="50" relative="1" as="geometry">
            <mxPoint x="2270" y="740" as="sourcePoint" />
            <mxPoint x="2340.710678118655" y="690" as="targetPoint" />
          </mxGeometry>
        </mxCell>
        <mxCell id="V6oRm1_Ef8_PO-AJIa_W-9" value="true" style="rounded=0;whiteSpace=wrap;html=1;" vertex="1" parent="1">
          <mxGeometry x="2340" y="660" width="120" height="60" as="geometry" />
        </mxCell>
        <mxCell id="V6oRm1_Ef8_PO-AJIa_W-10" value="" style="endArrow=classic;html=1;rounded=0;" edge="1" parent="1" source="V6oRm1_Ef8_PO-AJIa_W-9">
          <mxGeometry width="50" height="50" relative="1" as="geometry">
            <mxPoint x="2400" y="770" as="sourcePoint" />
            <mxPoint x="2400" y="790.7106781186548" as="targetPoint" />
          </mxGeometry>
        </mxCell>
        <mxCell id="V6oRm1_Ef8_PO-AJIa_W-12" value="if(Integer.parseInt(txtNumRounds.getText()) &amp;gt; 0)&amp;nbsp;" style="rhombus;whiteSpace=wrap;html=1;" vertex="1" parent="1">
          <mxGeometry x="2255" y="790" width="290" height="80" as="geometry" />
        </mxCell>
        <mxCell id="V6oRm1_Ef8_PO-AJIa_W-14" value="" style="endArrow=classic;html=1;rounded=0;entryX=0;entryY=0.5;entryDx=0;entryDy=0;" edge="1" parent="1" source="V6oRm1_Ef8_PO-AJIa_W-12" target="V6oRm1_Ef8_PO-AJIa_W-15">
          <mxGeometry width="50" height="50" relative="1" as="geometry">
            <mxPoint x="2545" y="880" as="sourcePoint" />
            <mxPoint x="2615.710678118655" y="830" as="targetPoint" />
          </mxGeometry>
        </mxCell>
        <mxCell id="V6oRm1_Ef8_PO-AJIa_W-15" value="true" style="rounded=0;whiteSpace=wrap;html=1;" vertex="1" parent="1">
          <mxGeometry x="2610" y="800" width="120" height="60" as="geometry" />
        </mxCell>
        <mxCell id="V6oRm1_Ef8_PO-AJIa_W-16" value="" style="endArrow=classic;html=1;rounded=0;" edge="1" parent="1" source="V6oRm1_Ef8_PO-AJIa_W-15">
          <mxGeometry width="50" height="50" relative="1" as="geometry">
            <mxPoint x="2670" y="910" as="sourcePoint" />
            <mxPoint x="2670" y="930.7106781186548" as="targetPoint" />
          </mxGeometry>
        </mxCell>
        <mxCell id="V6oRm1_Ef8_PO-AJIa_W-17" value="intRoundsLeft = intRoundsTot = Integer.parseInt(txtNumRounds.getText())&lt;br&gt;intWins = intTies = intLosses = intRocks = intPapers = intScissors = 0" style="rounded=0;whiteSpace=wrap;html=1;" vertex="1" parent="1">
          <mxGeometry x="2555" y="930" width="230" height="60" as="geometry" />
        </mxCell>
        <mxCell id="V6oRm1_Ef8_PO-AJIa_W-18" value="" style="endArrow=classic;html=1;rounded=0;" edge="1" parent="1" source="V6oRm1_Ef8_PO-AJIa_W-17">
          <mxGeometry width="50" height="50" relative="1" as="geometry">
            <mxPoint x="2670" y="1040" as="sourcePoint" />
            <mxPoint x="2670" y="1060.7106781186549" as="targetPoint" />
          </mxGeometry>
        </mxCell>
        <mxCell id="V6oRm1_Ef8_PO-AJIa_W-19" value="i = 0" style="rounded=0;whiteSpace=wrap;html=1;" vertex="1" parent="1">
          <mxGeometry x="2610" y="1060" width="120" height="60" as="geometry" />
        </mxCell>
        <mxCell id="V6oRm1_Ef8_PO-AJIa_W-20" value="" style="endArrow=classic;html=1;rounded=0;" edge="1" parent="1" source="V6oRm1_Ef8_PO-AJIa_W-19">
          <mxGeometry width="50" height="50" relative="1" as="geometry">
            <mxPoint x="2670" y="1170" as="sourcePoint" />
            <mxPoint x="2670" y="1190.7106781186549" as="targetPoint" />
          </mxGeometry>
        </mxCell>
        <mxCell id="V6oRm1_Ef8_PO-AJIa_W-21" value="i &amp;lt;&amp;nbsp;INTMAXROUNDS" style="rounded=0;whiteSpace=wrap;html=1;shape=rhombus;perimeter=rhombusPerimeter;" vertex="1" parent="1">
          <mxGeometry x="2610" y="1190" width="120" height="60" as="geometry" />
        </mxCell>
        <mxCell id="V6oRm1_Ef8_PO-AJIa_W-23" value="true" style="rounded=0;whiteSpace=wrap;html=1;" vertex="1" parent="1">
          <mxGeometry x="2800" y="1190" width="120" height="60" as="geometry" />
        </mxCell>
        <mxCell id="V6oRm1_Ef8_PO-AJIa_W-24" value="" style="endArrow=classic;html=1;rounded=0;" edge="1" parent="1" source="V6oRm1_Ef8_PO-AJIa_W-21">
          <mxGeometry width="50" height="50" relative="1" as="geometry">
            <mxPoint x="2730" y="1270" as="sourcePoint" />
            <mxPoint x="2800.710678118655" y="1220" as="targetPoint" />
          </mxGeometry>
        </mxCell>
        <mxCell id="V6oRm1_Ef8_PO-AJIa_W-25" value="" style="endArrow=classic;html=1;rounded=0;" edge="1" parent="1" source="V6oRm1_Ef8_PO-AJIa_W-23">
          <mxGeometry width="50" height="50" relative="1" as="geometry">
            <mxPoint x="2860" y="1300" as="sourcePoint" />
            <mxPoint x="2860" y="1320.7106781186549" as="targetPoint" />
          </mxGeometry>
        </mxCell>
        <mxCell id="V6oRm1_Ef8_PO-AJIa_W-47" style="edgeStyle=orthogonalEdgeStyle;rounded=0;orthogonalLoop=1;jettySize=auto;html=1;exitX=0.5;exitY=1;exitDx=0;exitDy=0;entryX=0.5;entryY=0;entryDx=0;entryDy=0;" edge="1" parent="1" source="V6oRm1_Ef8_PO-AJIa_W-26" target="V6oRm1_Ef8_PO-AJIa_W-40">
          <mxGeometry relative="1" as="geometry" />
        </mxCell>
        <mxCell id="V6oRm1_Ef8_PO-AJIa_W-26" value="intUsersPastObj[i] = intComputerPastObj[i] = intPastResults[i] = -1;" style="rounded=0;whiteSpace=wrap;html=1;" vertex="1" parent="1">
          <mxGeometry x="2800" y="1320" width="120" height="60" as="geometry" />
        </mxCell>
        <mxCell id="V6oRm1_Ef8_PO-AJIa_W-28" value="btnConfirmNumRounds.setVisible(false);" style="rounded=0;whiteSpace=wrap;html=1;shape=parallelogram;perimeter=parallelogramPerimeter;fixedSize=1;" vertex="1" parent="1">
          <mxGeometry x="2375" y="1320" width="220" height="60" as="geometry" />
        </mxCell>
        <mxCell id="V6oRm1_Ef8_PO-AJIa_W-29" value="" style="endArrow=classic;html=1;rounded=0;" edge="1" parent="1" source="V6oRm1_Ef8_PO-AJIa_W-21">
          <mxGeometry width="50" height="50" relative="1" as="geometry">
            <mxPoint x="2539.289321881345" y="1270" as="sourcePoint" />
            <mxPoint x="2539.289321881345" y="1220" as="targetPoint" />
          </mxGeometry>
        </mxCell>
        <mxCell id="V6oRm1_Ef8_PO-AJIa_W-44" style="edgeStyle=orthogonalEdgeStyle;rounded=0;orthogonalLoop=1;jettySize=auto;html=1;exitX=0.5;exitY=1;exitDx=0;exitDy=0;entryX=0.5;entryY=1;entryDx=0;entryDy=0;" edge="1" parent="1" source="V6oRm1_Ef8_PO-AJIa_W-28" target="V6oRm1_Ef8_PO-AJIa_W-33">
          <mxGeometry relative="1" as="geometry" />
        </mxCell>
        <mxCell id="V6oRm1_Ef8_PO-AJIa_W-30" value="false" style="rounded=0;whiteSpace=wrap;html=1;" vertex="1" parent="1">
          <mxGeometry x="2425" y="1190" width="120" height="60" as="geometry" />
        </mxCell>
        <mxCell id="V6oRm1_Ef8_PO-AJIa_W-31" value="" style="endArrow=classic;html=1;rounded=0;" edge="1" parent="1">
          <mxGeometry width="50" height="50" relative="1" as="geometry">
            <mxPoint x="2120" y="860" as="sourcePoint" />
            <mxPoint x="2120" y="930.7106781186549" as="targetPoint" />
          </mxGeometry>
        </mxCell>
        <mxCell id="V6oRm1_Ef8_PO-AJIa_W-45" style="edgeStyle=orthogonalEdgeStyle;rounded=0;orthogonalLoop=1;jettySize=auto;html=1;exitX=0.5;exitY=1;exitDx=0;exitDy=0;entryX=0.5;entryY=1;entryDx=0;entryDy=0;" edge="1" parent="1" source="V6oRm1_Ef8_PO-AJIa_W-32" target="V6oRm1_Ef8_PO-AJIa_W-33">
          <mxGeometry relative="1" as="geometry" />
        </mxCell>
        <mxCell id="V6oRm1_Ef8_PO-AJIa_W-32" value="Display &quot;ERROR: Number of rounds must be a positive integer amount.&quot; to the error message box" style="shape=parallelogram;perimeter=parallelogramPerimeter;whiteSpace=wrap;html=1;fixedSize=1;" vertex="1" parent="1">
          <mxGeometry x="2052.5" y="930" width="135" height="80" as="geometry" />
        </mxCell>
        <mxCell id="V6oRm1_Ef8_PO-AJIa_W-33" value="program isn&#39;t closed/program is running" style="rhombus;whiteSpace=wrap;html=1;" vertex="1" parent="1">
          <mxGeometry x="1650" y="340" width="470" height="80" as="geometry" />
        </mxCell>
        <mxCell id="V6oRm1_Ef8_PO-AJIa_W-36" value="true" style="rounded=0;whiteSpace=wrap;html=1;" vertex="1" parent="1">
          <mxGeometry x="2180" y="350" width="120" height="60" as="geometry" />
        </mxCell>
        <mxCell id="V6oRm1_Ef8_PO-AJIa_W-37" value="" style="endArrow=classic;html=1;rounded=0;" edge="1" parent="1" source="V6oRm1_Ef8_PO-AJIa_W-33">
          <mxGeometry width="50" height="50" relative="1" as="geometry">
            <mxPoint x="2110" y="430" as="sourcePoint" />
            <mxPoint x="2180.710678118655" y="380" as="targetPoint" />
          </mxGeometry>
        </mxCell>
        <mxCell id="V6oRm1_Ef8_PO-AJIa_W-38" value="" style="endArrow=classic;html=1;rounded=0;" edge="1" parent="1" source="V6oRm1_Ef8_PO-AJIa_W-36">
          <mxGeometry width="50" height="50" relative="1" as="geometry">
            <mxPoint x="2240" y="460" as="sourcePoint" />
            <mxPoint x="2240" y="550" as="targetPoint" />
          </mxGeometry>
        </mxCell>
        <mxCell id="V6oRm1_Ef8_PO-AJIa_W-43" style="edgeStyle=orthogonalEdgeStyle;rounded=0;orthogonalLoop=1;jettySize=auto;html=1;exitX=0.5;exitY=1;exitDx=0;exitDy=0;entryX=0.5;entryY=1;entryDx=0;entryDy=0;" edge="1" parent="1" source="V6oRm1_Ef8_PO-AJIa_W-40" target="V6oRm1_Ef8_PO-AJIa_W-21">
          <mxGeometry relative="1" as="geometry" />
        </mxCell>
        <mxCell id="V6oRm1_Ef8_PO-AJIa_W-40" value="i++" style="rounded=0;whiteSpace=wrap;html=1;" vertex="1" parent="1">
          <mxGeometry x="2800" y="1450" width="120" height="60" as="geometry" />
        </mxCell>
        <mxCell id="V6oRm1_Ef8_PO-AJIa_W-41" value="" style="endArrow=classic;html=1;rounded=0;" edge="1" parent="1" source="V6oRm1_Ef8_PO-AJIa_W-12">
          <mxGeometry width="50" height="50" relative="1" as="geometry">
            <mxPoint x="2184.289321881345" y="880" as="sourcePoint" />
            <mxPoint x="2184.289321881345" y="830" as="targetPoint" />
          </mxGeometry>
        </mxCell>
        <mxCell id="V6oRm1_Ef8_PO-AJIa_W-42" value="false" style="rounded=0;whiteSpace=wrap;html=1;" vertex="1" parent="1">
          <mxGeometry x="2060" y="800" width="120" height="60" as="geometry" />
        </mxCell>
        <mxCell id="V6oRm1_Ef8_PO-AJIa_W-46" value="" style="endArrow=classic;html=1;rounded=0;" edge="1" parent="1" source="V6oRm1_Ef8_PO-AJIa_W-30">
          <mxGeometry width="50" height="50" relative="1" as="geometry">
            <mxPoint x="2485" y="1300" as="sourcePoint" />
            <mxPoint x="2485" y="1320.7106781186549" as="targetPoint" />
          </mxGeometry>
        </mxCell>
        <mxCell id="V6oRm1_Ef8_PO-AJIa_W-48" value="" style="endArrow=classic;html=1;rounded=0;" edge="1" parent="1">
          <mxGeometry width="50" height="50" relative="1" as="geometry">
            <mxPoint x="3054.55" y="550" as="sourcePoint" />
            <mxPoint x="3054.55" y="630" as="targetPoint" />
          </mxGeometry>
        </mxCell>
        <mxCell id="V6oRm1_Ef8_PO-AJIa_W-49" value="btnConfirmChoice is clicked" style="rhombus;whiteSpace=wrap;html=1;" vertex="1" parent="1">
          <mxGeometry x="2970" y="630" width="170" height="80" as="geometry" />
        </mxCell>
        <mxCell id="V6oRm1_Ef8_PO-AJIa_W-50" value="" style="endArrow=classic;html=1;rounded=0;" edge="1" parent="1" source="V6oRm1_Ef8_PO-AJIa_W-49">
          <mxGeometry width="50" height="50" relative="1" as="geometry">
            <mxPoint x="3140" y="720" as="sourcePoint" />
            <mxPoint x="3210.710678118655" y="670" as="targetPoint" />
          </mxGeometry>
        </mxCell>
        <mxCell id="V6oRm1_Ef8_PO-AJIa_W-51" value="true" style="rounded=0;whiteSpace=wrap;html=1;" vertex="1" parent="1">
          <mxGeometry x="3210" y="640" width="120" height="60" as="geometry" />
        </mxCell>
        <mxCell id="V6oRm1_Ef8_PO-AJIa_W-52" value="" style="endArrow=classic;html=1;rounded=0;" edge="1" parent="1" source="V6oRm1_Ef8_PO-AJIa_W-51">
          <mxGeometry width="50" height="50" relative="1" as="geometry">
            <mxPoint x="3270" y="750" as="sourcePoint" />
            <mxPoint x="3270" y="770.7106781186548" as="targetPoint" />
          </mxGeometry>
        </mxCell>
        <mxCell id="V6oRm1_Ef8_PO-AJIa_W-53" value="if&amp;nbsp;intRoundsLeft &amp;lt;= 0" style="rhombus;whiteSpace=wrap;html=1;" vertex="1" parent="1">
          <mxGeometry x="3205" y="770" width="130" height="80" as="geometry" />
        </mxCell>
        <mxCell id="V6oRm1_Ef8_PO-AJIa_W-54" value="" style="endArrow=classic;html=1;rounded=0;" edge="1" parent="1" source="V6oRm1_Ef8_PO-AJIa_W-53">
          <mxGeometry width="50" height="50" relative="1" as="geometry">
            <mxPoint x="3335" y="860" as="sourcePoint" />
            <mxPoint x="3405.710678118655" y="810" as="targetPoint" />
          </mxGeometry>
        </mxCell>
        <mxCell id="V6oRm1_Ef8_PO-AJIa_W-55" value="true" style="rounded=0;whiteSpace=wrap;html=1;" vertex="1" parent="1">
          <mxGeometry x="3410" y="780" width="120" height="60" as="geometry" />
        </mxCell>
        <mxCell id="V6oRm1_Ef8_PO-AJIa_W-57" value="" style="endArrow=classic;html=1;rounded=0;" edge="1" parent="1" source="V6oRm1_Ef8_PO-AJIa_W-55">
          <mxGeometry width="50" height="50" relative="1" as="geometry">
            <mxPoint x="3470" y="890" as="sourcePoint" />
            <mxPoint x="3470" y="910.7106781186548" as="targetPoint" />
          </mxGeometry>
        </mxCell>
        <mxCell id="V6oRm1_Ef8_PO-AJIa_W-60" style="edgeStyle=orthogonalEdgeStyle;rounded=0;orthogonalLoop=1;jettySize=auto;html=1;exitX=0.5;exitY=1;exitDx=0;exitDy=0;entryX=0.5;entryY=1;entryDx=0;entryDy=0;" edge="1" parent="1" source="V6oRm1_Ef8_PO-AJIa_W-58" target="V6oRm1_Ef8_PO-AJIa_W-33">
          <mxGeometry relative="1" as="geometry">
            <Array as="points">
              <mxPoint x="3470" y="1010" />
              <mxPoint x="4320" y="1010" />
              <mxPoint x="4320" y="5240" />
              <mxPoint x="1885" y="5240" />
            </Array>
          </mxGeometry>
        </mxCell>
        <mxCell id="V6oRm1_Ef8_PO-AJIa_W-58" value="&lt;div&gt;Display &quot;This game is over, please enter the number of rounds you would like to play and click play!&quot; to the error message text block&lt;/div&gt;" style="shape=parallelogram;perimeter=parallelogramPerimeter;whiteSpace=wrap;html=1;fixedSize=1;" vertex="1" parent="1">
          <mxGeometry x="3360" y="910" width="220" height="80" as="geometry" />
        </mxCell>
        <mxCell id="V6oRm1_Ef8_PO-AJIa_W-62" value="" style="endArrow=classic;html=1;rounded=0;" edge="1" parent="1" source="V6oRm1_Ef8_PO-AJIa_W-53">
          <mxGeometry width="50" height="50" relative="1" as="geometry">
            <mxPoint x="3134.289321881345" y="860" as="sourcePoint" />
            <mxPoint x="3134.289321881345" y="810" as="targetPoint" />
          </mxGeometry>
        </mxCell>
        <mxCell id="V6oRm1_Ef8_PO-AJIa_W-65" style="edgeStyle=orthogonalEdgeStyle;rounded=0;orthogonalLoop=1;jettySize=auto;html=1;exitX=0.5;exitY=1;exitDx=0;exitDy=0;" edge="1" parent="1" source="V6oRm1_Ef8_PO-AJIa_W-63" target="V6oRm1_Ef8_PO-AJIa_W-64">
          <mxGeometry relative="1" as="geometry" />
        </mxCell>
        <mxCell id="V6oRm1_Ef8_PO-AJIa_W-63" value="false" style="rounded=0;whiteSpace=wrap;html=1;" vertex="1" parent="1">
          <mxGeometry x="3020" y="780" width="120" height="60" as="geometry" />
        </mxCell>
        <mxCell id="V6oRm1_Ef8_PO-AJIa_W-64" value="int intUserChoice = -1;" style="rounded=0;whiteSpace=wrap;html=1;" vertex="1" parent="1">
          <mxGeometry x="3220" y="1030" width="120" height="60" as="geometry" />
        </mxCell>
        <mxCell id="V6oRm1_Ef8_PO-AJIa_W-66" value="" style="endArrow=classic;html=1;rounded=0;" edge="1" parent="1" source="V6oRm1_Ef8_PO-AJIa_W-64">
          <mxGeometry width="50" height="50" relative="1" as="geometry">
            <mxPoint x="3280" y="1140" as="sourcePoint" />
            <mxPoint x="3280" y="1160.7106781186549" as="targetPoint" />
          </mxGeometry>
        </mxCell>
        <mxCell id="V6oRm1_Ef8_PO-AJIa_W-67" value="i = 0" style="rounded=0;whiteSpace=wrap;html=1;" vertex="1" parent="1">
          <mxGeometry x="3220" y="1160" width="120" height="60" as="geometry" />
        </mxCell>
        <mxCell id="V6oRm1_Ef8_PO-AJIa_W-68" value="" style="endArrow=classic;html=1;rounded=0;" edge="1" parent="1" source="V6oRm1_Ef8_PO-AJIa_W-67">
          <mxGeometry width="50" height="50" relative="1" as="geometry">
            <mxPoint x="3280" y="1270" as="sourcePoint" />
            <mxPoint x="3280" y="1290.7106781186549" as="targetPoint" />
          </mxGeometry>
        </mxCell>
        <mxCell id="V6oRm1_Ef8_PO-AJIa_W-69" value="i &amp;lt; strRPS.length" style="rhombus;whiteSpace=wrap;html=1;" vertex="1" parent="1">
          <mxGeometry x="3220" y="1290" width="120" height="80" as="geometry" />
        </mxCell>
        <mxCell id="V6oRm1_Ef8_PO-AJIa_W-70" value="" style="endArrow=classic;html=1;rounded=0;" edge="1" parent="1" source="V6oRm1_Ef8_PO-AJIa_W-69">
          <mxGeometry width="50" height="50" relative="1" as="geometry">
            <mxPoint x="3340" y="1380" as="sourcePoint" />
            <mxPoint x="3410.710678118655" y="1330" as="targetPoint" />
          </mxGeometry>
        </mxCell>
        <mxCell id="V6oRm1_Ef8_PO-AJIa_W-71" value="true" style="rounded=0;whiteSpace=wrap;html=1;" vertex="1" parent="1">
          <mxGeometry x="3410" y="1300" width="120" height="60" as="geometry" />
        </mxCell>
        <mxCell id="V6oRm1_Ef8_PO-AJIa_W-72" value="" style="endArrow=classic;html=1;rounded=0;" edge="1" parent="1" source="V6oRm1_Ef8_PO-AJIa_W-71">
          <mxGeometry width="50" height="50" relative="1" as="geometry">
            <mxPoint x="3470" y="1410" as="sourcePoint" />
            <mxPoint x="3470" y="1430.7106781186549" as="targetPoint" />
          </mxGeometry>
        </mxCell>
        <mxCell id="V6oRm1_Ef8_PO-AJIa_W-73" value="if (txtUsersObject.getText().toLowerCase().equals(strRPS[i]))" style="rhombus;whiteSpace=wrap;html=1;" vertex="1" parent="1">
          <mxGeometry x="3295" y="1430" width="350" height="80" as="geometry" />
        </mxCell>
        <mxCell id="V6oRm1_Ef8_PO-AJIa_W-74" value="" style="endArrow=classic;html=1;rounded=0;" edge="1" parent="1" source="V6oRm1_Ef8_PO-AJIa_W-73">
          <mxGeometry width="50" height="50" relative="1" as="geometry">
            <mxPoint x="3645" y="1520" as="sourcePoint" />
            <mxPoint x="3715.710678118655" y="1470" as="targetPoint" />
          </mxGeometry>
        </mxCell>
        <mxCell id="V6oRm1_Ef8_PO-AJIa_W-75" value="true" style="rounded=0;whiteSpace=wrap;html=1;" vertex="1" parent="1">
          <mxGeometry x="3710" y="1440" width="120" height="60" as="geometry" />
        </mxCell>
        <mxCell id="V6oRm1_Ef8_PO-AJIa_W-76" value="" style="endArrow=classic;html=1;rounded=0;" edge="1" parent="1" source="V6oRm1_Ef8_PO-AJIa_W-75">
          <mxGeometry width="50" height="50" relative="1" as="geometry">
            <mxPoint x="3770" y="1550" as="sourcePoint" />
            <mxPoint x="3770" y="1570.7106781186549" as="targetPoint" />
          </mxGeometry>
        </mxCell>
        <mxCell id="V6oRm1_Ef8_PO-AJIa_W-80" style="edgeStyle=orthogonalEdgeStyle;rounded=0;orthogonalLoop=1;jettySize=auto;html=1;exitX=0.5;exitY=1;exitDx=0;exitDy=0;entryX=0.5;entryY=1;entryDx=0;entryDy=0;" edge="1" parent="1" source="V6oRm1_Ef8_PO-AJIa_W-77" target="V6oRm1_Ef8_PO-AJIa_W-69">
          <mxGeometry relative="1" as="geometry" />
        </mxCell>
        <mxCell id="V6oRm1_Ef8_PO-AJIa_W-77" value="intUserChoice = i;" style="rounded=0;whiteSpace=wrap;html=1;" vertex="1" parent="1">
          <mxGeometry x="3710" y="1570" width="120" height="60" as="geometry" />
        </mxCell>
        <mxCell id="V6oRm1_Ef8_PO-AJIa_W-78" value="" style="endArrow=classic;html=1;rounded=0;entryX=0.5;entryY=0;entryDx=0;entryDy=0;" edge="1" parent="1" source="V6oRm1_Ef8_PO-AJIa_W-73" target="V6oRm1_Ef8_PO-AJIa_W-79">
          <mxGeometry width="50" height="50" relative="1" as="geometry">
            <mxPoint x="3224.289321881345" y="1520" as="sourcePoint" />
            <mxPoint x="3224.289321881345" y="1470" as="targetPoint" />
          </mxGeometry>
        </mxCell>
        <mxCell id="V6oRm1_Ef8_PO-AJIa_W-81" style="edgeStyle=orthogonalEdgeStyle;rounded=0;orthogonalLoop=1;jettySize=auto;html=1;exitX=0.5;exitY=1;exitDx=0;exitDy=0;" edge="1" parent="1" source="V6oRm1_Ef8_PO-AJIa_W-79">
          <mxGeometry relative="1" as="geometry">
            <mxPoint x="3280" y="1370" as="targetPoint" />
            <Array as="points">
              <mxPoint x="3470" y="1650" />
              <mxPoint x="3280" y="1650" />
            </Array>
          </mxGeometry>
        </mxCell>
        <mxCell id="V6oRm1_Ef8_PO-AJIa_W-79" value="false" style="rounded=0;whiteSpace=wrap;html=1;" vertex="1" parent="1">
          <mxGeometry x="3430" y="1560" width="80" height="60" as="geometry" />
        </mxCell>
        <mxCell id="V6oRm1_Ef8_PO-AJIa_W-82" value="" style="endArrow=classic;html=1;rounded=0;" edge="1" parent="1" source="V6oRm1_Ef8_PO-AJIa_W-69">
          <mxGeometry width="50" height="50" relative="1" as="geometry">
            <mxPoint x="3149.289321881345" y="1380" as="sourcePoint" />
            <mxPoint x="3149.289321881345" y="1330" as="targetPoint" />
          </mxGeometry>
        </mxCell>
        <mxCell id="V6oRm1_Ef8_PO-AJIa_W-83" value="false" style="rounded=0;whiteSpace=wrap;html=1;" vertex="1" parent="1">
          <mxGeometry x="3030" y="1300" width="120" height="60" as="geometry" />
        </mxCell>
        <mxCell id="V6oRm1_Ef8_PO-AJIa_W-84" value="" style="endArrow=classic;html=1;rounded=0;" edge="1" parent="1" source="V6oRm1_Ef8_PO-AJIa_W-83">
          <mxGeometry width="50" height="50" relative="1" as="geometry">
            <mxPoint x="3090" y="1410" as="sourcePoint" />
            <mxPoint x="3090" y="1680" as="targetPoint" />
          </mxGeometry>
        </mxCell>
        <mxCell id="V6oRm1_Ef8_PO-AJIa_W-85" value="if (intUserChoice == -1)" style="rhombus;whiteSpace=wrap;html=1;" vertex="1" parent="1">
          <mxGeometry x="3050" y="1680" width="80" height="80" as="geometry" />
        </mxCell>
        <mxCell id="V6oRm1_Ef8_PO-AJIa_W-86" value="" style="endArrow=classic;html=1;rounded=0;" edge="1" parent="1" source="V6oRm1_Ef8_PO-AJIa_W-85">
          <mxGeometry width="50" height="50" relative="1" as="geometry">
            <mxPoint x="3130" y="1770" as="sourcePoint" />
            <mxPoint x="3200.710678118655" y="1720" as="targetPoint" />
          </mxGeometry>
        </mxCell>
        <mxCell id="V6oRm1_Ef8_PO-AJIa_W-87" value="true" style="rounded=0;whiteSpace=wrap;html=1;" vertex="1" parent="1">
          <mxGeometry x="3205" y="1690" width="120" height="60" as="geometry" />
        </mxCell>
        <mxCell id="V6oRm1_Ef8_PO-AJIa_W-88" value="" style="endArrow=classic;html=1;rounded=0;" edge="1" parent="1" source="V6oRm1_Ef8_PO-AJIa_W-87">
          <mxGeometry width="50" height="50" relative="1" as="geometry">
            <mxPoint x="3265" y="1800" as="sourcePoint" />
            <mxPoint x="3265" y="1820.7106781186549" as="targetPoint" />
          </mxGeometry>
        </mxCell>
        <mxCell id="V6oRm1_Ef8_PO-AJIa_W-91" style="edgeStyle=orthogonalEdgeStyle;rounded=0;orthogonalLoop=1;jettySize=auto;html=1;exitX=0.5;exitY=1;exitDx=0;exitDy=0;entryX=0.5;entryY=1;entryDx=0;entryDy=0;" edge="1" parent="1" source="V6oRm1_Ef8_PO-AJIa_W-90" target="V6oRm1_Ef8_PO-AJIa_W-33">
          <mxGeometry relative="1" as="geometry">
            <mxPoint x="1880" y="430" as="targetPoint" />
            <Array as="points">
              <mxPoint x="3265" y="1910" />
              <mxPoint x="4320" y="1910" />
              <mxPoint x="4320" y="5240" />
              <mxPoint x="1885" y="5240" />
            </Array>
          </mxGeometry>
        </mxCell>
        <mxCell id="V6oRm1_Ef8_PO-AJIa_W-90" value="lblObjectErrorMsg.setText(&quot;ERROR: Object must \&quot;rock\&quot;, \&quot;paper\&quot;, or \&quot;scissors\&quot;.&quot;)" style="shape=parallelogram;perimeter=parallelogramPerimeter;whiteSpace=wrap;html=1;fixedSize=1;" vertex="1" parent="1">
          <mxGeometry x="3160" y="1820" width="210" height="60" as="geometry" />
        </mxCell>
        <mxCell id="V6oRm1_Ef8_PO-AJIa_W-92" value="" style="endArrow=classic;html=1;rounded=0;" edge="1" parent="1" source="V6oRm1_Ef8_PO-AJIa_W-85">
          <mxGeometry width="50" height="50" relative="1" as="geometry">
            <mxPoint x="2979.289321881345" y="1770" as="sourcePoint" />
            <mxPoint x="2979.289321881345" y="1720" as="targetPoint" />
          </mxGeometry>
        </mxCell>
        <mxCell id="V6oRm1_Ef8_PO-AJIa_W-93" value="false" style="rounded=0;whiteSpace=wrap;html=1;" vertex="1" parent="1">
          <mxGeometry x="2860" y="1690" width="120" height="60" as="geometry" />
        </mxCell>
        <mxCell id="V6oRm1_Ef8_PO-AJIa_W-94" value="" style="endArrow=classic;html=1;rounded=0;" edge="1" parent="1" source="V6oRm1_Ef8_PO-AJIa_W-93">
          <mxGeometry width="50" height="50" relative="1" as="geometry">
            <mxPoint x="2920" y="1800" as="sourcePoint" />
            <mxPoint x="2920" y="1820.7106781186549" as="targetPoint" />
          </mxGeometry>
        </mxCell>
        <mxCell id="V6oRm1_Ef8_PO-AJIa_W-95" value="lblObjectErrorMsg.setText(&quot;&quot;);" style="shape=parallelogram;perimeter=parallelogramPerimeter;whiteSpace=wrap;html=1;fixedSize=1;" vertex="1" parent="1">
          <mxGeometry x="2830" y="1820" width="180" height="60" as="geometry" />
        </mxCell>
        <mxCell id="V6oRm1_Ef8_PO-AJIa_W-97" value="" style="endArrow=classic;html=1;rounded=0;" edge="1" parent="1" source="V6oRm1_Ef8_PO-AJIa_W-95">
          <mxGeometry width="50" height="50" relative="1" as="geometry">
            <mxPoint x="2920" y="1930" as="sourcePoint" />
            <mxPoint x="2920" y="1950.7106781186549" as="targetPoint" />
          </mxGeometry>
        </mxCell>
        <mxCell id="V6oRm1_Ef8_PO-AJIa_W-98" value="&lt;div&gt;intUsersPastObj[intRoundsLeft] = intUserChoice&lt;/div&gt;&lt;div&gt;&lt;span style=&quot;background-color: initial;&quot;&gt;intComputerPastObj[intRoundsLeft] = (int)(Math.random() * 3)&lt;/span&gt;&lt;/div&gt;&lt;div&gt;&lt;span style=&quot;background-color: initial;&quot;&gt;intPastResults[intRoundsLeft] = &lt;b&gt;&lt;font style=&quot;font-size: 17px;&quot;&gt;whoWon&lt;/font&gt;&lt;/b&gt;(intUserChoice&lt;/span&gt;&lt;/div&gt;&lt;div&gt;&lt;span style=&quot;background-color: initial;&quot;&gt;intComputerPastObj[intRoundsLeft])&lt;/span&gt;&lt;br&gt;&lt;/div&gt;" style="rounded=0;whiteSpace=wrap;html=1;" vertex="1" parent="1">
          <mxGeometry x="2750" y="1950" width="340" height="80" as="geometry" />
        </mxCell>
        <mxCell id="V6oRm1_Ef8_PO-AJIa_W-99" value="" style="endArrow=classic;html=1;rounded=0;" edge="1" parent="1" source="V6oRm1_Ef8_PO-AJIa_W-98">
          <mxGeometry width="50" height="50" relative="1" as="geometry">
            <mxPoint x="2920" y="2080" as="sourcePoint" />
            <mxPoint x="2920" y="2100.710678118655" as="targetPoint" />
          </mxGeometry>
        </mxCell>
        <mxCell id="V6oRm1_Ef8_PO-AJIa_W-100" value="if (intPastResults[intRoundsLeft] == 0)" style="rhombus;whiteSpace=wrap;html=1;" vertex="1" parent="1">
          <mxGeometry x="2810" y="2100" width="220" height="80" as="geometry" />
        </mxCell>
        <mxCell id="V6oRm1_Ef8_PO-AJIa_W-101" value="" style="endArrow=classic;html=1;rounded=0;" edge="1" parent="1" source="V6oRm1_Ef8_PO-AJIa_W-100">
          <mxGeometry width="50" height="50" relative="1" as="geometry">
            <mxPoint x="3030" y="2190" as="sourcePoint" />
            <mxPoint x="3100.710678118655" y="2140" as="targetPoint" />
          </mxGeometry>
        </mxCell>
        <mxCell id="V6oRm1_Ef8_PO-AJIa_W-102" value="true" style="rounded=0;whiteSpace=wrap;html=1;" vertex="1" parent="1">
          <mxGeometry x="3100" y="2110" width="120" height="60" as="geometry" />
        </mxCell>
        <mxCell id="V6oRm1_Ef8_PO-AJIa_W-103" value="" style="endArrow=classic;html=1;rounded=0;" edge="1" parent="1" source="V6oRm1_Ef8_PO-AJIa_W-102">
          <mxGeometry width="50" height="50" relative="1" as="geometry">
            <mxPoint x="3160" y="2220" as="sourcePoint" />
            <mxPoint x="3160" y="2240.710678118655" as="targetPoint" />
          </mxGeometry>
        </mxCell>
        <mxCell id="V6oRm1_Ef8_PO-AJIa_W-126" style="edgeStyle=orthogonalEdgeStyle;rounded=0;orthogonalLoop=1;jettySize=auto;html=1;exitX=0.5;exitY=1;exitDx=0;exitDy=0;entryX=0.5;entryY=0;entryDx=0;entryDy=0;" edge="1" parent="1" source="V6oRm1_Ef8_PO-AJIa_W-104" target="V6oRm1_Ef8_PO-AJIa_W-125">
          <mxGeometry relative="1" as="geometry" />
        </mxCell>
        <mxCell id="V6oRm1_Ef8_PO-AJIa_W-104" value="lblResult.setText(&quot;Round &quot;+(intRoundsTot-intRoundsLeft+1)+&quot;: Computer played &quot;+strRPS[intComputerPastObj[intRoundsLeft]]+&quot;. You played &quot;+strRPS[intUserChoice]+&quot;. Computer Won!&quot;)" style="shape=parallelogram;perimeter=parallelogramPerimeter;whiteSpace=wrap;html=1;fixedSize=1;" vertex="1" parent="1">
          <mxGeometry x="3025" y="2240" width="270" height="80" as="geometry" />
        </mxCell>
        <mxCell id="V6oRm1_Ef8_PO-AJIa_W-105" value="" style="endArrow=classic;html=1;rounded=0;" edge="1" parent="1" source="V6oRm1_Ef8_PO-AJIa_W-100">
          <mxGeometry width="50" height="50" relative="1" as="geometry">
            <mxPoint x="2739.289321881345" y="2190" as="sourcePoint" />
            <mxPoint x="2739.289321881345" y="2140" as="targetPoint" />
          </mxGeometry>
        </mxCell>
        <mxCell id="V6oRm1_Ef8_PO-AJIa_W-106" value="false" style="rounded=0;whiteSpace=wrap;html=1;" vertex="1" parent="1">
          <mxGeometry x="2620" y="2110" width="120" height="60" as="geometry" />
        </mxCell>
        <mxCell id="V6oRm1_Ef8_PO-AJIa_W-107" value="" style="endArrow=classic;html=1;rounded=0;" edge="1" parent="1" source="V6oRm1_Ef8_PO-AJIa_W-106">
          <mxGeometry width="50" height="50" relative="1" as="geometry">
            <mxPoint x="2680" y="2220" as="sourcePoint" />
            <mxPoint x="2680" y="2240.710678118655" as="targetPoint" />
          </mxGeometry>
        </mxCell>
        <mxCell id="V6oRm1_Ef8_PO-AJIa_W-108" value="if (intPastResults[intRoundsLeft] == 1)" style="rhombus;whiteSpace=wrap;html=1;" vertex="1" parent="1">
          <mxGeometry x="2570" y="2240" width="220" height="80" as="geometry" />
        </mxCell>
        <mxCell id="V6oRm1_Ef8_PO-AJIa_W-109" value="" style="endArrow=classic;html=1;rounded=0;" edge="1" parent="1" source="V6oRm1_Ef8_PO-AJIa_W-108">
          <mxGeometry width="50" height="50" relative="1" as="geometry">
            <mxPoint x="2790" y="2330" as="sourcePoint" />
            <mxPoint x="2860.710678118655" y="2280" as="targetPoint" />
          </mxGeometry>
        </mxCell>
        <mxCell id="V6oRm1_Ef8_PO-AJIa_W-110" value="true" style="rounded=0;whiteSpace=wrap;html=1;" vertex="1" parent="1">
          <mxGeometry x="2860" y="2250" width="120" height="60" as="geometry" />
        </mxCell>
        <mxCell id="V6oRm1_Ef8_PO-AJIa_W-111" value="" style="endArrow=classic;html=1;rounded=0;" edge="1" parent="1" source="V6oRm1_Ef8_PO-AJIa_W-110">
          <mxGeometry width="50" height="50" relative="1" as="geometry">
            <mxPoint x="2920" y="2360" as="sourcePoint" />
            <mxPoint x="2920" y="2380.710678118655" as="targetPoint" />
          </mxGeometry>
        </mxCell>
        <mxCell id="V6oRm1_Ef8_PO-AJIa_W-127" style="edgeStyle=orthogonalEdgeStyle;rounded=0;orthogonalLoop=1;jettySize=auto;html=1;exitX=0.5;exitY=1;exitDx=0;exitDy=0;entryX=0.5;entryY=0;entryDx=0;entryDy=0;" edge="1" parent="1" source="V6oRm1_Ef8_PO-AJIa_W-112" target="V6oRm1_Ef8_PO-AJIa_W-125">
          <mxGeometry relative="1" as="geometry">
            <Array as="points">
              <mxPoint x="2920" y="2650" />
              <mxPoint x="3160" y="2650" />
            </Array>
          </mxGeometry>
        </mxCell>
        <mxCell id="V6oRm1_Ef8_PO-AJIa_W-112" value="&lt;div&gt;lblResult.setText(&quot;Round &quot;+(intRoundsTot-intRoundsLeft+1)+&quot;: Computer played &quot;+strRPS[intComputerPastObj[intRoundsLeft]]+&quot;. You played &quot;+strRPS[intUserChoice]+&quot;. Player Won!&quot;)&lt;/div&gt;" style="shape=parallelogram;perimeter=parallelogramPerimeter;whiteSpace=wrap;html=1;fixedSize=1;" vertex="1" parent="1">
          <mxGeometry x="2785" y="2380" width="270" height="80" as="geometry" />
        </mxCell>
        <mxCell id="V6oRm1_Ef8_PO-AJIa_W-113" value="" style="endArrow=classic;html=1;rounded=0;" edge="1" parent="1" source="V6oRm1_Ef8_PO-AJIa_W-108">
          <mxGeometry width="50" height="50" relative="1" as="geometry">
            <mxPoint x="2499.289321881345" y="2330" as="sourcePoint" />
            <mxPoint x="2499.289321881345" y="2280" as="targetPoint" />
          </mxGeometry>
        </mxCell>
        <mxCell id="V6oRm1_Ef8_PO-AJIa_W-114" value="false" style="rounded=0;whiteSpace=wrap;html=1;" vertex="1" parent="1">
          <mxGeometry x="2380" y="2250" width="120" height="60" as="geometry" />
        </mxCell>
        <mxCell id="V6oRm1_Ef8_PO-AJIa_W-115" value="" style="endArrow=classic;html=1;rounded=0;" edge="1" parent="1" source="V6oRm1_Ef8_PO-AJIa_W-114">
          <mxGeometry width="50" height="50" relative="1" as="geometry">
            <mxPoint x="2440" y="2360" as="sourcePoint" />
            <mxPoint x="2440" y="2380.710678118655" as="targetPoint" />
          </mxGeometry>
        </mxCell>
        <mxCell id="V6oRm1_Ef8_PO-AJIa_W-116" value="if (intPastResults[intRoundsLeft] == 2)" style="rhombus;whiteSpace=wrap;html=1;" vertex="1" parent="1">
          <mxGeometry x="2330" y="2380" width="220" height="80" as="geometry" />
        </mxCell>
        <mxCell id="V6oRm1_Ef8_PO-AJIa_W-117" value="" style="endArrow=classic;html=1;rounded=0;" edge="1" parent="1" source="V6oRm1_Ef8_PO-AJIa_W-116">
          <mxGeometry width="50" height="50" relative="1" as="geometry">
            <mxPoint x="2550" y="2470" as="sourcePoint" />
            <mxPoint x="2620.710678118655" y="2420" as="targetPoint" />
          </mxGeometry>
        </mxCell>
        <mxCell id="V6oRm1_Ef8_PO-AJIa_W-118" value="true" style="rounded=0;whiteSpace=wrap;html=1;" vertex="1" parent="1">
          <mxGeometry x="2620" y="2390" width="120" height="60" as="geometry" />
        </mxCell>
        <mxCell id="V6oRm1_Ef8_PO-AJIa_W-119" value="" style="endArrow=classic;html=1;rounded=0;" edge="1" parent="1" source="V6oRm1_Ef8_PO-AJIa_W-118">
          <mxGeometry width="50" height="50" relative="1" as="geometry">
            <mxPoint x="2680" y="2500" as="sourcePoint" />
            <mxPoint x="2680" y="2520.710678118655" as="targetPoint" />
          </mxGeometry>
        </mxCell>
        <mxCell id="V6oRm1_Ef8_PO-AJIa_W-128" style="edgeStyle=orthogonalEdgeStyle;rounded=0;orthogonalLoop=1;jettySize=auto;html=1;exitX=0.5;exitY=1;exitDx=0;exitDy=0;entryX=0.5;entryY=0;entryDx=0;entryDy=0;" edge="1" parent="1" source="V6oRm1_Ef8_PO-AJIa_W-120" target="V6oRm1_Ef8_PO-AJIa_W-125">
          <mxGeometry relative="1" as="geometry">
            <Array as="points">
              <mxPoint x="2680" y="2650" />
              <mxPoint x="3160" y="2650" />
            </Array>
          </mxGeometry>
        </mxCell>
        <mxCell id="V6oRm1_Ef8_PO-AJIa_W-120" value="&lt;div&gt;lblResult.setText(&quot;Round &quot;+(intRoundsTot-intRoundsLeft+1)+&quot;: Computer played &quot;+strRPS[intComputerPastObj[intRoundsLeft]]+&quot;. You played &quot;+strRPS[intUserChoice]+&quot;. You Tied!&quot;)&lt;/div&gt;" style="shape=parallelogram;perimeter=parallelogramPerimeter;whiteSpace=wrap;html=1;fixedSize=1;" vertex="1" parent="1">
          <mxGeometry x="2545" y="2520" width="270" height="80" as="geometry" />
        </mxCell>
        <mxCell id="V6oRm1_Ef8_PO-AJIa_W-121" value="" style="endArrow=classic;html=1;rounded=0;" edge="1" parent="1" source="V6oRm1_Ef8_PO-AJIa_W-116">
          <mxGeometry width="50" height="50" relative="1" as="geometry">
            <mxPoint x="2259.289321881345" y="2470" as="sourcePoint" />
            <mxPoint x="2259.289321881345" y="2420" as="targetPoint" />
          </mxGeometry>
        </mxCell>
        <mxCell id="V6oRm1_Ef8_PO-AJIa_W-122" value="false" style="rounded=0;whiteSpace=wrap;html=1;" vertex="1" parent="1">
          <mxGeometry x="2140" y="2390" width="120" height="60" as="geometry" />
        </mxCell>
        <mxCell id="V6oRm1_Ef8_PO-AJIa_W-123" value="" style="endArrow=classic;html=1;rounded=0;" edge="1" parent="1" source="V6oRm1_Ef8_PO-AJIa_W-122">
          <mxGeometry width="50" height="50" relative="1" as="geometry">
            <mxPoint x="2200" y="2500" as="sourcePoint" />
            <mxPoint x="2200" y="2520.710678118655" as="targetPoint" />
          </mxGeometry>
        </mxCell>
        <mxCell id="V6oRm1_Ef8_PO-AJIa_W-129" style="edgeStyle=orthogonalEdgeStyle;rounded=0;orthogonalLoop=1;jettySize=auto;html=1;exitX=0.5;exitY=1;exitDx=0;exitDy=0;entryX=0.5;entryY=0;entryDx=0;entryDy=0;" edge="1" parent="1" source="V6oRm1_Ef8_PO-AJIa_W-124" target="V6oRm1_Ef8_PO-AJIa_W-125">
          <mxGeometry relative="1" as="geometry">
            <Array as="points">
              <mxPoint x="2200" y="2650" />
              <mxPoint x="3160" y="2650" />
            </Array>
          </mxGeometry>
        </mxCell>
        <mxCell id="V6oRm1_Ef8_PO-AJIa_W-124" value="lblResult.setText(&quot;Error has occured !!!&quot;);" style="shape=parallelogram;perimeter=parallelogramPerimeter;whiteSpace=wrap;html=1;fixedSize=1;" vertex="1" parent="1">
          <mxGeometry x="2120" y="2520" width="160" height="60" as="geometry" />
        </mxCell>
        <mxCell id="V6oRm1_Ef8_PO-AJIa_W-125" value="if (intRoundsLeft != 1)" style="rhombus;whiteSpace=wrap;html=1;" vertex="1" parent="1">
          <mxGeometry x="3120" y="2710" width="80" height="80" as="geometry" />
        </mxCell>
        <mxCell id="V6oRm1_Ef8_PO-AJIa_W-130" value="" style="endArrow=classic;html=1;rounded=0;" edge="1" parent="1" source="V6oRm1_Ef8_PO-AJIa_W-125">
          <mxGeometry width="50" height="50" relative="1" as="geometry">
            <mxPoint x="3200" y="2800" as="sourcePoint" />
            <mxPoint x="3270.710678118655" y="2750" as="targetPoint" />
          </mxGeometry>
        </mxCell>
        <mxCell id="V6oRm1_Ef8_PO-AJIa_W-131" value="true" style="rounded=0;whiteSpace=wrap;html=1;" vertex="1" parent="1">
          <mxGeometry x="3270" y="2720" width="120" height="60" as="geometry" />
        </mxCell>
        <mxCell id="V6oRm1_Ef8_PO-AJIa_W-132" value="" style="endArrow=classic;html=1;rounded=0;" edge="1" parent="1" source="V6oRm1_Ef8_PO-AJIa_W-131">
          <mxGeometry width="50" height="50" relative="1" as="geometry">
            <mxPoint x="3330" y="2830" as="sourcePoint" />
            <mxPoint x="3330" y="2850.710678118655" as="targetPoint" />
          </mxGeometry>
        </mxCell>
        <mxCell id="V6oRm1_Ef8_PO-AJIa_W-139" style="edgeStyle=orthogonalEdgeStyle;rounded=0;orthogonalLoop=1;jettySize=auto;html=1;exitX=0.5;exitY=1;exitDx=0;exitDy=0;entryX=0.5;entryY=0;entryDx=0;entryDy=0;" edge="1" parent="1" source="V6oRm1_Ef8_PO-AJIa_W-133" target="V6oRm1_Ef8_PO-AJIa_W-138">
          <mxGeometry relative="1" as="geometry">
            <Array as="points">
              <mxPoint x="3330" y="2970" />
              <mxPoint x="3173" y="2970" />
              <mxPoint x="3173" y="3030" />
            </Array>
          </mxGeometry>
        </mxCell>
        <mxCell id="V6oRm1_Ef8_PO-AJIa_W-133" value="lblRoundTitle.setText(&quot;Round &quot;+(intRoundsTot-intRoundsLeft+2)+&quot;! Enter your object and click the button below&quot;)" style="shape=parallelogram;perimeter=parallelogramPerimeter;whiteSpace=wrap;html=1;fixedSize=1;" vertex="1" parent="1">
          <mxGeometry x="3230" y="2850" width="200" height="70" as="geometry" />
        </mxCell>
        <mxCell id="V6oRm1_Ef8_PO-AJIa_W-134" value="" style="endArrow=classic;html=1;rounded=0;" edge="1" parent="1" source="V6oRm1_Ef8_PO-AJIa_W-125">
          <mxGeometry width="50" height="50" relative="1" as="geometry">
            <mxPoint x="3049.289321881345" y="2800" as="sourcePoint" />
            <mxPoint x="3049.289321881345" y="2750" as="targetPoint" />
          </mxGeometry>
        </mxCell>
        <mxCell id="V6oRm1_Ef8_PO-AJIa_W-135" value="false" style="rounded=0;whiteSpace=wrap;html=1;" vertex="1" parent="1">
          <mxGeometry x="2930" y="2720" width="120" height="60" as="geometry" />
        </mxCell>
        <mxCell id="V6oRm1_Ef8_PO-AJIa_W-136" value="" style="endArrow=classic;html=1;rounded=0;" edge="1" parent="1" source="V6oRm1_Ef8_PO-AJIa_W-135">
          <mxGeometry width="50" height="50" relative="1" as="geometry">
            <mxPoint x="2990" y="2830" as="sourcePoint" />
            <mxPoint x="2990" y="2850.710678118655" as="targetPoint" />
          </mxGeometry>
        </mxCell>
        <mxCell id="V6oRm1_Ef8_PO-AJIa_W-140" style="edgeStyle=orthogonalEdgeStyle;rounded=0;orthogonalLoop=1;jettySize=auto;html=1;exitX=0.5;exitY=1;exitDx=0;exitDy=0;entryX=0.5;entryY=0;entryDx=0;entryDy=0;" edge="1" parent="1" source="V6oRm1_Ef8_PO-AJIa_W-137" target="V6oRm1_Ef8_PO-AJIa_W-138">
          <mxGeometry relative="1" as="geometry">
            <mxPoint x="3240" y="2960" as="targetPoint" />
            <Array as="points">
              <mxPoint x="2990" y="2970" />
              <mxPoint x="3173" y="2970" />
              <mxPoint x="3173" y="3030" />
            </Array>
          </mxGeometry>
        </mxCell>
        <mxCell id="V6oRm1_Ef8_PO-AJIa_W-137" value="lblRoundTitle.setText(&quot;No more rounds left!&quot;)" style="shape=parallelogram;perimeter=parallelogramPerimeter;whiteSpace=wrap;html=1;fixedSize=1;" vertex="1" parent="1">
          <mxGeometry x="2910" y="2850" width="160" height="60" as="geometry" />
        </mxCell>
        <mxCell id="V6oRm1_Ef8_PO-AJIa_W-138" value="if(intUsersPastObj[intRoundsLeft] == 0)" style="rhombus;whiteSpace=wrap;html=1;" vertex="1" parent="1">
          <mxGeometry x="3075" y="3030" width="195" height="70" as="geometry" />
        </mxCell>
        <mxCell id="V6oRm1_Ef8_PO-AJIa_W-143" value="" style="endArrow=classic;html=1;rounded=0;" edge="1" parent="1" source="V6oRm1_Ef8_PO-AJIa_W-138">
          <mxGeometry width="50" height="50" relative="1" as="geometry">
            <mxPoint x="3270" y="3115" as="sourcePoint" />
            <mxPoint x="3340.710678118655" y="3065" as="targetPoint" />
          </mxGeometry>
        </mxCell>
        <mxCell id="V6oRm1_Ef8_PO-AJIa_W-144" value="true" style="rounded=0;whiteSpace=wrap;html=1;" vertex="1" parent="1">
          <mxGeometry x="3340" y="3035" width="120" height="60" as="geometry" />
        </mxCell>
        <mxCell id="V6oRm1_Ef8_PO-AJIa_W-145" value="" style="endArrow=classic;html=1;rounded=0;entryX=0.5;entryY=0;entryDx=0;entryDy=0;" edge="1" parent="1" source="V6oRm1_Ef8_PO-AJIa_W-144" target="V6oRm1_Ef8_PO-AJIa_W-146">
          <mxGeometry width="50" height="50" relative="1" as="geometry">
            <mxPoint x="3400" y="3145" as="sourcePoint" />
            <mxPoint x="3400" y="3165.710678118655" as="targetPoint" />
          </mxGeometry>
        </mxCell>
        <mxCell id="V6oRm1_Ef8_PO-AJIa_W-197" style="edgeStyle=orthogonalEdgeStyle;rounded=0;orthogonalLoop=1;jettySize=auto;html=1;exitX=0.5;exitY=1;exitDx=0;exitDy=0;entryX=0.5;entryY=0;entryDx=0;entryDy=0;" edge="1" parent="1" source="V6oRm1_Ef8_PO-AJIa_W-146" target="V6oRm1_Ef8_PO-AJIa_W-174">
          <mxGeometry relative="1" as="geometry" />
        </mxCell>
        <mxCell id="V6oRm1_Ef8_PO-AJIa_W-146" value="intRocks++" style="rounded=0;whiteSpace=wrap;html=1;" vertex="1" parent="1">
          <mxGeometry x="3341.25" y="3160" width="120" height="60" as="geometry" />
        </mxCell>
        <mxCell id="V6oRm1_Ef8_PO-AJIa_W-147" value="" style="endArrow=classic;html=1;rounded=0;entryX=1;entryY=0.5;entryDx=0;entryDy=0;" edge="1" parent="1" source="V6oRm1_Ef8_PO-AJIa_W-138" target="V6oRm1_Ef8_PO-AJIa_W-148">
          <mxGeometry width="50" height="50" relative="1" as="geometry">
            <mxPoint x="3004.289321881345" y="3115" as="sourcePoint" />
            <mxPoint x="3004.289321881345" y="3065" as="targetPoint" />
          </mxGeometry>
        </mxCell>
        <mxCell id="V6oRm1_Ef8_PO-AJIa_W-148" value="false" style="rounded=0;whiteSpace=wrap;html=1;" vertex="1" parent="1">
          <mxGeometry x="2887.5" y="3035" width="120" height="60" as="geometry" />
        </mxCell>
        <mxCell id="V6oRm1_Ef8_PO-AJIa_W-149" value="" style="endArrow=classic;html=1;rounded=0;entryX=0.5;entryY=0;entryDx=0;entryDy=0;" edge="1" parent="1" source="V6oRm1_Ef8_PO-AJIa_W-148" target="V6oRm1_Ef8_PO-AJIa_W-150">
          <mxGeometry width="50" height="50" relative="1" as="geometry">
            <mxPoint x="2950" y="3145" as="sourcePoint" />
            <mxPoint x="2950" y="3165.710678118655" as="targetPoint" />
          </mxGeometry>
        </mxCell>
        <mxCell id="V6oRm1_Ef8_PO-AJIa_W-150" value="if(intUsersPastObj[intRoundsLeft] == 1)" style="rhombus;whiteSpace=wrap;html=1;" vertex="1" parent="1">
          <mxGeometry x="2850" y="3160" width="195" height="70" as="geometry" />
        </mxCell>
        <mxCell id="V6oRm1_Ef8_PO-AJIa_W-151" value="" style="endArrow=classic;html=1;rounded=0;" edge="1" parent="1" source="V6oRm1_Ef8_PO-AJIa_W-150">
          <mxGeometry width="50" height="50" relative="1" as="geometry">
            <mxPoint x="3045" y="3245" as="sourcePoint" />
            <mxPoint x="3115.710678118655" y="3195" as="targetPoint" />
          </mxGeometry>
        </mxCell>
        <mxCell id="V6oRm1_Ef8_PO-AJIa_W-152" value="true" style="rounded=0;whiteSpace=wrap;html=1;" vertex="1" parent="1">
          <mxGeometry x="3115" y="3165" width="120" height="60" as="geometry" />
        </mxCell>
        <mxCell id="V6oRm1_Ef8_PO-AJIa_W-153" value="" style="endArrow=classic;html=1;rounded=0;entryX=0.5;entryY=0;entryDx=0;entryDy=0;" edge="1" parent="1" source="V6oRm1_Ef8_PO-AJIa_W-152" target="V6oRm1_Ef8_PO-AJIa_W-154">
          <mxGeometry width="50" height="50" relative="1" as="geometry">
            <mxPoint x="3175" y="3275" as="sourcePoint" />
            <mxPoint x="3175" y="3295.710678118655" as="targetPoint" />
          </mxGeometry>
        </mxCell>
        <mxCell id="V6oRm1_Ef8_PO-AJIa_W-198" style="edgeStyle=orthogonalEdgeStyle;rounded=0;orthogonalLoop=1;jettySize=auto;html=1;exitX=0.5;exitY=1;exitDx=0;exitDy=0;entryX=0.5;entryY=0;entryDx=0;entryDy=0;" edge="1" parent="1" source="V6oRm1_Ef8_PO-AJIa_W-154" target="V6oRm1_Ef8_PO-AJIa_W-174">
          <mxGeometry relative="1" as="geometry">
            <mxPoint x="3400" y="3520" as="targetPoint" />
            <Array as="points">
              <mxPoint x="3175" y="3510" />
              <mxPoint x="3401" y="3510" />
            </Array>
          </mxGeometry>
        </mxCell>
        <mxCell id="V6oRm1_Ef8_PO-AJIa_W-154" value="intPapers++" style="rounded=0;whiteSpace=wrap;html=1;" vertex="1" parent="1">
          <mxGeometry x="3115" y="3290" width="120" height="60" as="geometry" />
        </mxCell>
        <mxCell id="V6oRm1_Ef8_PO-AJIa_W-155" value="" style="endArrow=classic;html=1;rounded=0;entryX=1;entryY=0.5;entryDx=0;entryDy=0;" edge="1" parent="1" source="V6oRm1_Ef8_PO-AJIa_W-150" target="V6oRm1_Ef8_PO-AJIa_W-156">
          <mxGeometry width="50" height="50" relative="1" as="geometry">
            <mxPoint x="2779.289321881345" y="3245" as="sourcePoint" />
            <mxPoint x="2779.289321881345" y="3195" as="targetPoint" />
          </mxGeometry>
        </mxCell>
        <mxCell id="V6oRm1_Ef8_PO-AJIa_W-156" value="false" style="rounded=0;whiteSpace=wrap;html=1;" vertex="1" parent="1">
          <mxGeometry x="2660" y="3165" width="120" height="60" as="geometry" />
        </mxCell>
        <mxCell id="V6oRm1_Ef8_PO-AJIa_W-157" value="" style="endArrow=classic;html=1;rounded=0;entryX=0.5;entryY=0;entryDx=0;entryDy=0;" edge="1" parent="1" source="V6oRm1_Ef8_PO-AJIa_W-156" target="V6oRm1_Ef8_PO-AJIa_W-166">
          <mxGeometry width="50" height="50" relative="1" as="geometry">
            <mxPoint x="2725" y="3275" as="sourcePoint" />
            <mxPoint x="2720" y="3296" as="targetPoint" />
          </mxGeometry>
        </mxCell>
        <mxCell id="V6oRm1_Ef8_PO-AJIa_W-166" value="if(intUsersPastObj[intRoundsLeft] == 2)" style="rhombus;whiteSpace=wrap;html=1;" vertex="1" parent="1">
          <mxGeometry x="2622.5" y="3300" width="195" height="70" as="geometry" />
        </mxCell>
        <mxCell id="V6oRm1_Ef8_PO-AJIa_W-167" value="" style="endArrow=classic;html=1;rounded=0;" edge="1" parent="1" source="V6oRm1_Ef8_PO-AJIa_W-166">
          <mxGeometry width="50" height="50" relative="1" as="geometry">
            <mxPoint x="2817.5" y="3385" as="sourcePoint" />
            <mxPoint x="2888.210678118655" y="3335" as="targetPoint" />
          </mxGeometry>
        </mxCell>
        <mxCell id="V6oRm1_Ef8_PO-AJIa_W-168" value="true" style="rounded=0;whiteSpace=wrap;html=1;" vertex="1" parent="1">
          <mxGeometry x="2887.5" y="3305" width="120" height="60" as="geometry" />
        </mxCell>
        <mxCell id="V6oRm1_Ef8_PO-AJIa_W-169" value="" style="endArrow=classic;html=1;rounded=0;entryX=0.5;entryY=0;entryDx=0;entryDy=0;" edge="1" parent="1" source="V6oRm1_Ef8_PO-AJIa_W-168" target="V6oRm1_Ef8_PO-AJIa_W-170">
          <mxGeometry width="50" height="50" relative="1" as="geometry">
            <mxPoint x="2947.5" y="3415" as="sourcePoint" />
            <mxPoint x="2947.5" y="3435.710678118655" as="targetPoint" />
          </mxGeometry>
        </mxCell>
        <mxCell id="V6oRm1_Ef8_PO-AJIa_W-199" style="edgeStyle=orthogonalEdgeStyle;rounded=0;orthogonalLoop=1;jettySize=auto;html=1;exitX=0.5;exitY=1;exitDx=0;exitDy=0;entryX=0.5;entryY=0;entryDx=0;entryDy=0;" edge="1" parent="1" source="V6oRm1_Ef8_PO-AJIa_W-170" target="V6oRm1_Ef8_PO-AJIa_W-174">
          <mxGeometry relative="1" as="geometry">
            <Array as="points">
              <mxPoint x="2948" y="3510" />
              <mxPoint x="3401" y="3510" />
            </Array>
          </mxGeometry>
        </mxCell>
        <mxCell id="V6oRm1_Ef8_PO-AJIa_W-170" value="intScissors++" style="rounded=0;whiteSpace=wrap;html=1;" vertex="1" parent="1">
          <mxGeometry x="2887.5" y="3430" width="120" height="60" as="geometry" />
        </mxCell>
        <mxCell id="V6oRm1_Ef8_PO-AJIa_W-171" value="" style="endArrow=classic;html=1;rounded=0;entryX=1;entryY=0.5;entryDx=0;entryDy=0;" edge="1" parent="1" source="V6oRm1_Ef8_PO-AJIa_W-166" target="V6oRm1_Ef8_PO-AJIa_W-172">
          <mxGeometry width="50" height="50" relative="1" as="geometry">
            <mxPoint x="2551.789321881345" y="3385" as="sourcePoint" />
            <mxPoint x="2551.789321881345" y="3335" as="targetPoint" />
          </mxGeometry>
        </mxCell>
        <mxCell id="V6oRm1_Ef8_PO-AJIa_W-200" style="edgeStyle=orthogonalEdgeStyle;rounded=0;orthogonalLoop=1;jettySize=auto;html=1;exitX=0.5;exitY=1;exitDx=0;exitDy=0;entryX=0.5;entryY=0;entryDx=0;entryDy=0;" edge="1" parent="1" source="V6oRm1_Ef8_PO-AJIa_W-172" target="V6oRm1_Ef8_PO-AJIa_W-174">
          <mxGeometry relative="1" as="geometry">
            <Array as="points">
              <mxPoint x="2493" y="3510" />
              <mxPoint x="3401" y="3510" />
            </Array>
          </mxGeometry>
        </mxCell>
        <mxCell id="V6oRm1_Ef8_PO-AJIa_W-172" value="false" style="rounded=0;whiteSpace=wrap;html=1;" vertex="1" parent="1">
          <mxGeometry x="2432.5" y="3305" width="120" height="60" as="geometry" />
        </mxCell>
        <mxCell id="V6oRm1_Ef8_PO-AJIa_W-174" value="if(intComputerPastObj[intRoundsLeft] == 0)" style="rhombus;whiteSpace=wrap;html=1;" vertex="1" parent="1">
          <mxGeometry x="3303.75" y="3540" width="195" height="70" as="geometry" />
        </mxCell>
        <mxCell id="V6oRm1_Ef8_PO-AJIa_W-175" value="" style="endArrow=classic;html=1;rounded=0;" edge="1" parent="1" source="V6oRm1_Ef8_PO-AJIa_W-174">
          <mxGeometry width="50" height="50" relative="1" as="geometry">
            <mxPoint x="3498.75" y="3625" as="sourcePoint" />
            <mxPoint x="3569.460678118655" y="3575" as="targetPoint" />
          </mxGeometry>
        </mxCell>
        <mxCell id="V6oRm1_Ef8_PO-AJIa_W-176" value="true" style="rounded=0;whiteSpace=wrap;html=1;" vertex="1" parent="1">
          <mxGeometry x="3568.75" y="3545" width="120" height="60" as="geometry" />
        </mxCell>
        <mxCell id="V6oRm1_Ef8_PO-AJIa_W-177" value="" style="endArrow=classic;html=1;rounded=0;entryX=0.5;entryY=0;entryDx=0;entryDy=0;" edge="1" parent="1" source="V6oRm1_Ef8_PO-AJIa_W-176" target="V6oRm1_Ef8_PO-AJIa_W-178">
          <mxGeometry width="50" height="50" relative="1" as="geometry">
            <mxPoint x="3628.75" y="3655" as="sourcePoint" />
            <mxPoint x="3628.75" y="3675.710678118655" as="targetPoint" />
          </mxGeometry>
        </mxCell>
        <mxCell id="V6oRm1_Ef8_PO-AJIa_W-224" style="edgeStyle=orthogonalEdgeStyle;rounded=0;orthogonalLoop=1;jettySize=auto;html=1;exitX=0.5;exitY=1;exitDx=0;exitDy=0;entryX=0.5;entryY=0;entryDx=0;entryDy=0;" edge="1" parent="1" source="V6oRm1_Ef8_PO-AJIa_W-178" target="V6oRm1_Ef8_PO-AJIa_W-201">
          <mxGeometry relative="1" as="geometry" />
        </mxCell>
        <mxCell id="V6oRm1_Ef8_PO-AJIa_W-178" value="intRocks++" style="rounded=0;whiteSpace=wrap;html=1;" vertex="1" parent="1">
          <mxGeometry x="3568.75" y="3670" width="120" height="60" as="geometry" />
        </mxCell>
        <mxCell id="V6oRm1_Ef8_PO-AJIa_W-179" value="" style="endArrow=classic;html=1;rounded=0;entryX=1;entryY=0.5;entryDx=0;entryDy=0;" edge="1" parent="1" source="V6oRm1_Ef8_PO-AJIa_W-174" target="V6oRm1_Ef8_PO-AJIa_W-180">
          <mxGeometry width="50" height="50" relative="1" as="geometry">
            <mxPoint x="3233.039321881345" y="3625" as="sourcePoint" />
            <mxPoint x="3233.039321881345" y="3575" as="targetPoint" />
          </mxGeometry>
        </mxCell>
        <mxCell id="V6oRm1_Ef8_PO-AJIa_W-180" value="false" style="rounded=0;whiteSpace=wrap;html=1;" vertex="1" parent="1">
          <mxGeometry x="3116.25" y="3545" width="120" height="60" as="geometry" />
        </mxCell>
        <mxCell id="V6oRm1_Ef8_PO-AJIa_W-181" value="" style="endArrow=classic;html=1;rounded=0;entryX=0.5;entryY=0;entryDx=0;entryDy=0;" edge="1" parent="1" source="V6oRm1_Ef8_PO-AJIa_W-180" target="V6oRm1_Ef8_PO-AJIa_W-182">
          <mxGeometry width="50" height="50" relative="1" as="geometry">
            <mxPoint x="3178.75" y="3655" as="sourcePoint" />
            <mxPoint x="3178.75" y="3675.710678118655" as="targetPoint" />
          </mxGeometry>
        </mxCell>
        <mxCell id="V6oRm1_Ef8_PO-AJIa_W-182" value="if(intComputerPastObj[intRoundsLeft] == 1)" style="rhombus;whiteSpace=wrap;html=1;" vertex="1" parent="1">
          <mxGeometry x="3078.75" y="3670" width="195" height="70" as="geometry" />
        </mxCell>
        <mxCell id="V6oRm1_Ef8_PO-AJIa_W-183" value="" style="endArrow=classic;html=1;rounded=0;" edge="1" parent="1" source="V6oRm1_Ef8_PO-AJIa_W-182">
          <mxGeometry width="50" height="50" relative="1" as="geometry">
            <mxPoint x="3273.75" y="3755" as="sourcePoint" />
            <mxPoint x="3344.460678118655" y="3705" as="targetPoint" />
          </mxGeometry>
        </mxCell>
        <mxCell id="V6oRm1_Ef8_PO-AJIa_W-184" value="true" style="rounded=0;whiteSpace=wrap;html=1;" vertex="1" parent="1">
          <mxGeometry x="3343.75" y="3675" width="120" height="60" as="geometry" />
        </mxCell>
        <mxCell id="V6oRm1_Ef8_PO-AJIa_W-185" value="" style="endArrow=classic;html=1;rounded=0;entryX=0.5;entryY=0;entryDx=0;entryDy=0;" edge="1" parent="1" source="V6oRm1_Ef8_PO-AJIa_W-184" target="V6oRm1_Ef8_PO-AJIa_W-186">
          <mxGeometry width="50" height="50" relative="1" as="geometry">
            <mxPoint x="3403.75" y="3785" as="sourcePoint" />
            <mxPoint x="3403.75" y="3805.710678118655" as="targetPoint" />
          </mxGeometry>
        </mxCell>
        <mxCell id="V6oRm1_Ef8_PO-AJIa_W-225" style="edgeStyle=orthogonalEdgeStyle;rounded=0;orthogonalLoop=1;jettySize=auto;html=1;exitX=0.5;exitY=1;exitDx=0;exitDy=0;entryX=0.5;entryY=0;entryDx=0;entryDy=0;" edge="1" parent="1" source="V6oRm1_Ef8_PO-AJIa_W-186" target="V6oRm1_Ef8_PO-AJIa_W-201">
          <mxGeometry relative="1" as="geometry">
            <Array as="points">
              <mxPoint x="3404" y="4020" />
              <mxPoint x="3630" y="4020" />
            </Array>
          </mxGeometry>
        </mxCell>
        <mxCell id="V6oRm1_Ef8_PO-AJIa_W-186" value="intPapers++" style="rounded=0;whiteSpace=wrap;html=1;" vertex="1" parent="1">
          <mxGeometry x="3343.75" y="3800" width="120" height="60" as="geometry" />
        </mxCell>
        <mxCell id="V6oRm1_Ef8_PO-AJIa_W-187" value="" style="endArrow=classic;html=1;rounded=0;entryX=1;entryY=0.5;entryDx=0;entryDy=0;" edge="1" parent="1" source="V6oRm1_Ef8_PO-AJIa_W-182" target="V6oRm1_Ef8_PO-AJIa_W-188">
          <mxGeometry width="50" height="50" relative="1" as="geometry">
            <mxPoint x="3008.039321881345" y="3755" as="sourcePoint" />
            <mxPoint x="3008.039321881345" y="3705" as="targetPoint" />
          </mxGeometry>
        </mxCell>
        <mxCell id="V6oRm1_Ef8_PO-AJIa_W-188" value="false" style="rounded=0;whiteSpace=wrap;html=1;" vertex="1" parent="1">
          <mxGeometry x="2888.75" y="3675" width="120" height="60" as="geometry" />
        </mxCell>
        <mxCell id="V6oRm1_Ef8_PO-AJIa_W-189" value="" style="endArrow=classic;html=1;rounded=0;entryX=0.5;entryY=0;entryDx=0;entryDy=0;" edge="1" parent="1" source="V6oRm1_Ef8_PO-AJIa_W-188" target="V6oRm1_Ef8_PO-AJIa_W-190">
          <mxGeometry width="50" height="50" relative="1" as="geometry">
            <mxPoint x="2953.75" y="3785" as="sourcePoint" />
            <mxPoint x="2948.75" y="3806" as="targetPoint" />
          </mxGeometry>
        </mxCell>
        <mxCell id="V6oRm1_Ef8_PO-AJIa_W-190" value="if(intComputerPastObj[intRoundsLeft] == 2)" style="rhombus;whiteSpace=wrap;html=1;" vertex="1" parent="1">
          <mxGeometry x="2851.25" y="3810" width="195" height="70" as="geometry" />
        </mxCell>
        <mxCell id="V6oRm1_Ef8_PO-AJIa_W-191" value="" style="endArrow=classic;html=1;rounded=0;" edge="1" parent="1" source="V6oRm1_Ef8_PO-AJIa_W-190">
          <mxGeometry width="50" height="50" relative="1" as="geometry">
            <mxPoint x="3046.25" y="3895" as="sourcePoint" />
            <mxPoint x="3116.960678118655" y="3845" as="targetPoint" />
          </mxGeometry>
        </mxCell>
        <mxCell id="V6oRm1_Ef8_PO-AJIa_W-192" value="true" style="rounded=0;whiteSpace=wrap;html=1;" vertex="1" parent="1">
          <mxGeometry x="3116.25" y="3815" width="120" height="60" as="geometry" />
        </mxCell>
        <mxCell id="V6oRm1_Ef8_PO-AJIa_W-193" value="" style="endArrow=classic;html=1;rounded=0;entryX=0.5;entryY=0;entryDx=0;entryDy=0;" edge="1" parent="1" source="V6oRm1_Ef8_PO-AJIa_W-192" target="V6oRm1_Ef8_PO-AJIa_W-194">
          <mxGeometry width="50" height="50" relative="1" as="geometry">
            <mxPoint x="3176.25" y="3925" as="sourcePoint" />
            <mxPoint x="3176.25" y="3945.710678118655" as="targetPoint" />
          </mxGeometry>
        </mxCell>
        <mxCell id="V6oRm1_Ef8_PO-AJIa_W-226" style="edgeStyle=orthogonalEdgeStyle;rounded=0;orthogonalLoop=1;jettySize=auto;html=1;exitX=0.5;exitY=1;exitDx=0;exitDy=0;entryX=0.5;entryY=0;entryDx=0;entryDy=0;" edge="1" parent="1" source="V6oRm1_Ef8_PO-AJIa_W-194" target="V6oRm1_Ef8_PO-AJIa_W-201">
          <mxGeometry relative="1" as="geometry">
            <mxPoint x="3630" y="4040" as="targetPoint" />
          </mxGeometry>
        </mxCell>
        <mxCell id="V6oRm1_Ef8_PO-AJIa_W-194" value="intScissors++" style="rounded=0;whiteSpace=wrap;html=1;" vertex="1" parent="1">
          <mxGeometry x="3116.25" y="3940" width="120" height="60" as="geometry" />
        </mxCell>
        <mxCell id="V6oRm1_Ef8_PO-AJIa_W-195" value="" style="endArrow=classic;html=1;rounded=0;entryX=1;entryY=0.5;entryDx=0;entryDy=0;" edge="1" parent="1" source="V6oRm1_Ef8_PO-AJIa_W-190" target="V6oRm1_Ef8_PO-AJIa_W-196">
          <mxGeometry width="50" height="50" relative="1" as="geometry">
            <mxPoint x="2780.539321881345" y="3895" as="sourcePoint" />
            <mxPoint x="2780.539321881345" y="3845" as="targetPoint" />
          </mxGeometry>
        </mxCell>
        <mxCell id="V6oRm1_Ef8_PO-AJIa_W-227" style="edgeStyle=orthogonalEdgeStyle;rounded=0;orthogonalLoop=1;jettySize=auto;html=1;exitX=0.5;exitY=1;exitDx=0;exitDy=0;entryX=0.5;entryY=0;entryDx=0;entryDy=0;" edge="1" parent="1" source="V6oRm1_Ef8_PO-AJIa_W-196" target="V6oRm1_Ef8_PO-AJIa_W-201">
          <mxGeometry relative="1" as="geometry">
            <Array as="points">
              <mxPoint x="2721" y="4020" />
              <mxPoint x="3630" y="4020" />
            </Array>
          </mxGeometry>
        </mxCell>
        <mxCell id="V6oRm1_Ef8_PO-AJIa_W-196" value="false" style="rounded=0;whiteSpace=wrap;html=1;" vertex="1" parent="1">
          <mxGeometry x="2661.25" y="3815" width="120" height="60" as="geometry" />
        </mxCell>
        <mxCell id="V6oRm1_Ef8_PO-AJIa_W-201" value="if (intPastResults[intRoundsLeft] == 0)" style="rhombus;whiteSpace=wrap;html=1;" vertex="1" parent="1">
          <mxGeometry x="3532.5" y="4040" width="195" height="70" as="geometry" />
        </mxCell>
        <mxCell id="V6oRm1_Ef8_PO-AJIa_W-202" value="" style="endArrow=classic;html=1;rounded=0;" edge="1" parent="1" source="V6oRm1_Ef8_PO-AJIa_W-201">
          <mxGeometry width="50" height="50" relative="1" as="geometry">
            <mxPoint x="3727.5" y="4125" as="sourcePoint" />
            <mxPoint x="3798.210678118655" y="4075" as="targetPoint" />
          </mxGeometry>
        </mxCell>
        <mxCell id="V6oRm1_Ef8_PO-AJIa_W-203" value="true" style="rounded=0;whiteSpace=wrap;html=1;" vertex="1" parent="1">
          <mxGeometry x="3797.5" y="4045" width="120" height="60" as="geometry" />
        </mxCell>
        <mxCell id="V6oRm1_Ef8_PO-AJIa_W-204" value="" style="endArrow=classic;html=1;rounded=0;entryX=0.5;entryY=0;entryDx=0;entryDy=0;" edge="1" parent="1" source="V6oRm1_Ef8_PO-AJIa_W-203" target="V6oRm1_Ef8_PO-AJIa_W-205">
          <mxGeometry width="50" height="50" relative="1" as="geometry">
            <mxPoint x="3857.5" y="4155" as="sourcePoint" />
            <mxPoint x="3857.5" y="4175.710678118655" as="targetPoint" />
          </mxGeometry>
        </mxCell>
        <mxCell id="V6oRm1_Ef8_PO-AJIa_W-230" style="edgeStyle=orthogonalEdgeStyle;rounded=0;orthogonalLoop=1;jettySize=auto;html=1;exitX=0.5;exitY=1;exitDx=0;exitDy=0;entryX=0.5;entryY=0;entryDx=0;entryDy=0;" edge="1" parent="1" source="V6oRm1_Ef8_PO-AJIa_W-205" target="V6oRm1_Ef8_PO-AJIa_W-229">
          <mxGeometry relative="1" as="geometry" />
        </mxCell>
        <mxCell id="V6oRm1_Ef8_PO-AJIa_W-205" value="intLosses++" style="rounded=0;whiteSpace=wrap;html=1;" vertex="1" parent="1">
          <mxGeometry x="3797.5" y="4170" width="120" height="60" as="geometry" />
        </mxCell>
        <mxCell id="V6oRm1_Ef8_PO-AJIa_W-206" value="" style="endArrow=classic;html=1;rounded=0;entryX=1;entryY=0.5;entryDx=0;entryDy=0;" edge="1" parent="1" source="V6oRm1_Ef8_PO-AJIa_W-201" target="V6oRm1_Ef8_PO-AJIa_W-207">
          <mxGeometry width="50" height="50" relative="1" as="geometry">
            <mxPoint x="3461.789321881345" y="4125" as="sourcePoint" />
            <mxPoint x="3461.789321881345" y="4075" as="targetPoint" />
          </mxGeometry>
        </mxCell>
        <mxCell id="V6oRm1_Ef8_PO-AJIa_W-207" value="false" style="rounded=0;whiteSpace=wrap;html=1;" vertex="1" parent="1">
          <mxGeometry x="3345" y="4045" width="120" height="60" as="geometry" />
        </mxCell>
        <mxCell id="V6oRm1_Ef8_PO-AJIa_W-208" value="" style="endArrow=classic;html=1;rounded=0;entryX=0.5;entryY=0;entryDx=0;entryDy=0;" edge="1" parent="1" source="V6oRm1_Ef8_PO-AJIa_W-207" target="V6oRm1_Ef8_PO-AJIa_W-209">
          <mxGeometry width="50" height="50" relative="1" as="geometry">
            <mxPoint x="3407.5" y="4155" as="sourcePoint" />
            <mxPoint x="3407.5" y="4175.710678118655" as="targetPoint" />
          </mxGeometry>
        </mxCell>
        <mxCell id="V6oRm1_Ef8_PO-AJIa_W-209" value="if (intPastResults[intRoundsLeft] == 1)" style="rhombus;whiteSpace=wrap;html=1;" vertex="1" parent="1">
          <mxGeometry x="3307.5" y="4170" width="195" height="70" as="geometry" />
        </mxCell>
        <mxCell id="V6oRm1_Ef8_PO-AJIa_W-210" value="" style="endArrow=classic;html=1;rounded=0;" edge="1" parent="1" source="V6oRm1_Ef8_PO-AJIa_W-209">
          <mxGeometry width="50" height="50" relative="1" as="geometry">
            <mxPoint x="3502.5" y="4255" as="sourcePoint" />
            <mxPoint x="3573.210678118655" y="4205" as="targetPoint" />
          </mxGeometry>
        </mxCell>
        <mxCell id="V6oRm1_Ef8_PO-AJIa_W-211" value="true" style="rounded=0;whiteSpace=wrap;html=1;" vertex="1" parent="1">
          <mxGeometry x="3572.5" y="4175" width="120" height="60" as="geometry" />
        </mxCell>
        <mxCell id="V6oRm1_Ef8_PO-AJIa_W-212" value="" style="endArrow=classic;html=1;rounded=0;entryX=0.5;entryY=0;entryDx=0;entryDy=0;" edge="1" parent="1" source="V6oRm1_Ef8_PO-AJIa_W-211" target="V6oRm1_Ef8_PO-AJIa_W-213">
          <mxGeometry width="50" height="50" relative="1" as="geometry">
            <mxPoint x="3632.5" y="4285" as="sourcePoint" />
            <mxPoint x="3632.5" y="4305.710678118655" as="targetPoint" />
          </mxGeometry>
        </mxCell>
        <mxCell id="V6oRm1_Ef8_PO-AJIa_W-231" style="edgeStyle=orthogonalEdgeStyle;rounded=0;orthogonalLoop=1;jettySize=auto;html=1;exitX=0.5;exitY=1;exitDx=0;exitDy=0;entryX=0.5;entryY=0;entryDx=0;entryDy=0;" edge="1" parent="1" source="V6oRm1_Ef8_PO-AJIa_W-213" target="V6oRm1_Ef8_PO-AJIa_W-229">
          <mxGeometry relative="1" as="geometry">
            <Array as="points">
              <mxPoint x="3633" y="4560" />
              <mxPoint x="3858" y="4560" />
              <mxPoint x="3858" y="4630" />
            </Array>
          </mxGeometry>
        </mxCell>
        <mxCell id="V6oRm1_Ef8_PO-AJIa_W-213" value="intWins++" style="rounded=0;whiteSpace=wrap;html=1;" vertex="1" parent="1">
          <mxGeometry x="3572.5" y="4300" width="120" height="60" as="geometry" />
        </mxCell>
        <mxCell id="V6oRm1_Ef8_PO-AJIa_W-214" value="" style="endArrow=classic;html=1;rounded=0;entryX=1;entryY=0.5;entryDx=0;entryDy=0;" edge="1" parent="1" source="V6oRm1_Ef8_PO-AJIa_W-209" target="V6oRm1_Ef8_PO-AJIa_W-215">
          <mxGeometry width="50" height="50" relative="1" as="geometry">
            <mxPoint x="3236.789321881345" y="4255" as="sourcePoint" />
            <mxPoint x="3236.789321881345" y="4205" as="targetPoint" />
          </mxGeometry>
        </mxCell>
        <mxCell id="V6oRm1_Ef8_PO-AJIa_W-215" value="false" style="rounded=0;whiteSpace=wrap;html=1;" vertex="1" parent="1">
          <mxGeometry x="3117.5" y="4175" width="120" height="60" as="geometry" />
        </mxCell>
        <mxCell id="V6oRm1_Ef8_PO-AJIa_W-216" value="" style="endArrow=classic;html=1;rounded=0;entryX=0.5;entryY=0;entryDx=0;entryDy=0;" edge="1" parent="1" source="V6oRm1_Ef8_PO-AJIa_W-215" target="V6oRm1_Ef8_PO-AJIa_W-217">
          <mxGeometry width="50" height="50" relative="1" as="geometry">
            <mxPoint x="3182.5" y="4285" as="sourcePoint" />
            <mxPoint x="3177.5" y="4306" as="targetPoint" />
          </mxGeometry>
        </mxCell>
        <mxCell id="V6oRm1_Ef8_PO-AJIa_W-217" value="if (intPastResults[intRoundsLeft] == 2)" style="rhombus;whiteSpace=wrap;html=1;" vertex="1" parent="1">
          <mxGeometry x="3080" y="4310" width="195" height="70" as="geometry" />
        </mxCell>
        <mxCell id="V6oRm1_Ef8_PO-AJIa_W-218" value="" style="endArrow=classic;html=1;rounded=0;" edge="1" parent="1" source="V6oRm1_Ef8_PO-AJIa_W-217">
          <mxGeometry width="50" height="50" relative="1" as="geometry">
            <mxPoint x="3275" y="4395" as="sourcePoint" />
            <mxPoint x="3345.710678118655" y="4345" as="targetPoint" />
          </mxGeometry>
        </mxCell>
        <mxCell id="V6oRm1_Ef8_PO-AJIa_W-219" value="true" style="rounded=0;whiteSpace=wrap;html=1;" vertex="1" parent="1">
          <mxGeometry x="3345" y="4315" width="120" height="60" as="geometry" />
        </mxCell>
        <mxCell id="V6oRm1_Ef8_PO-AJIa_W-220" value="" style="endArrow=classic;html=1;rounded=0;entryX=0.5;entryY=0;entryDx=0;entryDy=0;" edge="1" parent="1" source="V6oRm1_Ef8_PO-AJIa_W-219" target="V6oRm1_Ef8_PO-AJIa_W-221">
          <mxGeometry width="50" height="50" relative="1" as="geometry">
            <mxPoint x="3405" y="4425" as="sourcePoint" />
            <mxPoint x="3405" y="4445.710678118655" as="targetPoint" />
          </mxGeometry>
        </mxCell>
        <mxCell id="V6oRm1_Ef8_PO-AJIa_W-232" style="edgeStyle=orthogonalEdgeStyle;rounded=0;orthogonalLoop=1;jettySize=auto;html=1;exitX=0.5;exitY=1;exitDx=0;exitDy=0;entryX=0.5;entryY=0;entryDx=0;entryDy=0;" edge="1" parent="1" source="V6oRm1_Ef8_PO-AJIa_W-221" target="V6oRm1_Ef8_PO-AJIa_W-229">
          <mxGeometry relative="1" as="geometry">
            <mxPoint x="3840" y="4590" as="targetPoint" />
            <Array as="points">
              <mxPoint x="3405" y="4560" />
              <mxPoint x="3858" y="4560" />
              <mxPoint x="3858" y="4630" />
            </Array>
          </mxGeometry>
        </mxCell>
        <mxCell id="V6oRm1_Ef8_PO-AJIa_W-221" value="intTies++" style="rounded=0;whiteSpace=wrap;html=1;" vertex="1" parent="1">
          <mxGeometry x="3345" y="4440" width="120" height="60" as="geometry" />
        </mxCell>
        <mxCell id="V6oRm1_Ef8_PO-AJIa_W-222" value="" style="endArrow=classic;html=1;rounded=0;entryX=1;entryY=0.5;entryDx=0;entryDy=0;" edge="1" parent="1" source="V6oRm1_Ef8_PO-AJIa_W-217" target="V6oRm1_Ef8_PO-AJIa_W-223">
          <mxGeometry width="50" height="50" relative="1" as="geometry">
            <mxPoint x="3009.289321881345" y="4395" as="sourcePoint" />
            <mxPoint x="3009.289321881345" y="4345" as="targetPoint" />
          </mxGeometry>
        </mxCell>
        <mxCell id="V6oRm1_Ef8_PO-AJIa_W-233" style="edgeStyle=orthogonalEdgeStyle;rounded=0;orthogonalLoop=1;jettySize=auto;html=1;exitX=0.5;exitY=1;exitDx=0;exitDy=0;entryX=0.5;entryY=0;entryDx=0;entryDy=0;" edge="1" parent="1" source="V6oRm1_Ef8_PO-AJIa_W-223" target="V6oRm1_Ef8_PO-AJIa_W-229">
          <mxGeometry relative="1" as="geometry">
            <Array as="points">
              <mxPoint x="2950" y="4560" />
              <mxPoint x="3858" y="4560" />
              <mxPoint x="3858" y="4630" />
            </Array>
          </mxGeometry>
        </mxCell>
        <mxCell id="V6oRm1_Ef8_PO-AJIa_W-223" value="false" style="rounded=0;whiteSpace=wrap;html=1;" vertex="1" parent="1">
          <mxGeometry x="2890" y="4315" width="120" height="60" as="geometry" />
        </mxCell>
        <mxCell id="V6oRm1_Ef8_PO-AJIa_W-229" value="&lt;div&gt;lblWins.setText(&quot;Wins: &quot; + intWins);&lt;/div&gt;&lt;div&gt;&lt;span style=&quot;background-color: initial;&quot;&gt;lblLosses.setText(&quot;Losses: &quot; + intLosses);&lt;/span&gt;&lt;br&gt;&lt;/div&gt;&lt;div&gt;&lt;span style=&quot;background-color: initial;&quot;&gt;lblTies.setText(&quot;Ties: &quot; + intTies);&lt;/span&gt;&lt;br&gt;&lt;/div&gt;&lt;div&gt;&lt;span style=&quot;background-color: initial;&quot;&gt;lblWinPercent.setText(&quot;Win %: &quot; + df2.format((double)intWins/(double)(intWins+intLosses+intTies)*100.0)+&quot;%&quot;);&lt;/span&gt;&lt;br&gt;&lt;/div&gt;&lt;div&gt;&lt;span style=&quot;background-color: initial;&quot;&gt;lblLossPercent.setText(&quot;Loss %: &quot; + df2.format((double)intLosses/(double)(intWins+intLosses+intTies)*100.0)+&quot;%&quot;);&lt;/span&gt;&lt;br&gt;&lt;/div&gt;&lt;div&gt;&lt;span style=&quot;background-color: initial;&quot;&gt;lblTiePercent.setText(&quot;Tie %: &quot; + df2.format((double)intTies/(double)(intWins+intLosses+intTies)*100.0)+&quot;%&quot;);&lt;/span&gt;&lt;br&gt;&lt;/div&gt;&lt;div&gt;&lt;span style=&quot;background-color: initial;&quot;&gt;lblRocksPlayed.setText(&quot;Number of times Rock has been played: &quot; + intRocks);&lt;/span&gt;&lt;br&gt;&lt;/div&gt;&lt;div&gt;&lt;span style=&quot;background-color: initial;&quot;&gt;lblPapersPlayed.setText(&quot;Number of times Paper has been played: &quot; + intPapers);&lt;/span&gt;&lt;br&gt;&lt;/div&gt;&lt;div&gt;&lt;span style=&quot;background-color: initial;&quot;&gt;lblScissorsPlayed.setText(&quot;Number of times Scissors has been played: &quot; + intScissors);&lt;/span&gt;&lt;br&gt;&lt;/div&gt;" style="shape=parallelogram;perimeter=parallelogramPerimeter;whiteSpace=wrap;html=1;fixedSize=1;" vertex="1" parent="1">
          <mxGeometry x="3532.5" y="4650" width="652.5" height="150" as="geometry" />
        </mxCell>
        <mxCell id="V6oRm1_Ef8_PO-AJIa_W-234" value="" style="endArrow=classic;html=1;rounded=0;" edge="1" parent="1" source="V6oRm1_Ef8_PO-AJIa_W-229">
          <mxGeometry width="50" height="50" relative="1" as="geometry">
            <mxPoint x="3858.75" y="4850" as="sourcePoint" />
            <mxPoint x="3858.75" y="4870.710678118655" as="targetPoint" />
          </mxGeometry>
        </mxCell>
        <mxCell id="V6oRm1_Ef8_PO-AJIa_W-235" value="intRoundsLeft--" style="rounded=0;whiteSpace=wrap;html=1;" vertex="1" parent="1">
          <mxGeometry x="3798.75" y="4870" width="120" height="60" as="geometry" />
        </mxCell>
        <mxCell id="V6oRm1_Ef8_PO-AJIa_W-236" value="" style="endArrow=classic;html=1;rounded=0;" edge="1" parent="1" source="V6oRm1_Ef8_PO-AJIa_W-235">
          <mxGeometry width="50" height="50" relative="1" as="geometry">
            <mxPoint x="3858.75" y="4980" as="sourcePoint" />
            <mxPoint x="3858.75" y="5000.710678118655" as="targetPoint" />
          </mxGeometry>
        </mxCell>
        <mxCell id="V6oRm1_Ef8_PO-AJIa_W-237" value="if (intRoundsLeft == 0)&amp;nbsp;" style="rhombus;whiteSpace=wrap;html=1;" vertex="1" parent="1">
          <mxGeometry x="3819" y="5000" width="80" height="80" as="geometry" />
        </mxCell>
        <mxCell id="V6oRm1_Ef8_PO-AJIa_W-238" value="" style="endArrow=classic;html=1;rounded=0;" edge="1" parent="1" source="V6oRm1_Ef8_PO-AJIa_W-237">
          <mxGeometry width="50" height="50" relative="1" as="geometry">
            <mxPoint x="3899" y="5090" as="sourcePoint" />
            <mxPoint x="3969.710678118655" y="5040" as="targetPoint" />
          </mxGeometry>
        </mxCell>
        <mxCell id="V6oRm1_Ef8_PO-AJIa_W-239" value="true" style="rounded=0;whiteSpace=wrap;html=1;" vertex="1" parent="1">
          <mxGeometry x="3970" y="5010" width="120" height="60" as="geometry" />
        </mxCell>
        <mxCell id="V6oRm1_Ef8_PO-AJIa_W-240" value="" style="endArrow=classic;html=1;rounded=0;" edge="1" parent="1" source="V6oRm1_Ef8_PO-AJIa_W-239">
          <mxGeometry width="50" height="50" relative="1" as="geometry">
            <mxPoint x="4030" y="5120" as="sourcePoint" />
            <mxPoint x="4030" y="5140.710678118655" as="targetPoint" />
          </mxGeometry>
        </mxCell>
        <mxCell id="V6oRm1_Ef8_PO-AJIa_W-245" style="edgeStyle=orthogonalEdgeStyle;rounded=0;orthogonalLoop=1;jettySize=auto;html=1;exitX=0.5;exitY=1;exitDx=0;exitDy=0;entryX=0.5;entryY=1;entryDx=0;entryDy=0;" edge="1" parent="1" source="V6oRm1_Ef8_PO-AJIa_W-241" target="V6oRm1_Ef8_PO-AJIa_W-33">
          <mxGeometry relative="1" as="geometry">
            <Array as="points">
              <mxPoint x="4030" y="5240" />
              <mxPoint x="1885" y="5240" />
            </Array>
          </mxGeometry>
        </mxCell>
        <mxCell id="V6oRm1_Ef8_PO-AJIa_W-241" value="btnConfirmNumRounds.setVisible(true);" style="shape=parallelogram;perimeter=parallelogramPerimeter;whiteSpace=wrap;html=1;fixedSize=1;" vertex="1" parent="1">
          <mxGeometry x="3910" y="5140" width="240" height="60" as="geometry" />
        </mxCell>
        <mxCell id="V6oRm1_Ef8_PO-AJIa_W-242" value="" style="endArrow=classic;html=1;rounded=0;" edge="1" parent="1" source="V6oRm1_Ef8_PO-AJIa_W-237">
          <mxGeometry width="50" height="50" relative="1" as="geometry">
            <mxPoint x="3748.289321881345" y="5090" as="sourcePoint" />
            <mxPoint x="3748.289321881345" y="5040" as="targetPoint" />
          </mxGeometry>
        </mxCell>
        <mxCell id="V6oRm1_Ef8_PO-AJIa_W-244" style="edgeStyle=orthogonalEdgeStyle;rounded=0;orthogonalLoop=1;jettySize=auto;html=1;exitX=0.5;exitY=1;exitDx=0;exitDy=0;entryX=0.5;entryY=1;entryDx=0;entryDy=0;" edge="1" parent="1" source="V6oRm1_Ef8_PO-AJIa_W-243" target="V6oRm1_Ef8_PO-AJIa_W-33">
          <mxGeometry relative="1" as="geometry">
            <mxPoint x="1550" y="1210" as="targetPoint" />
          </mxGeometry>
        </mxCell>
        <mxCell id="V6oRm1_Ef8_PO-AJIa_W-243" value="false" style="rounded=0;whiteSpace=wrap;html=1;" vertex="1" parent="1">
          <mxGeometry x="3630" y="5010" width="120" height="60" as="geometry" />
        </mxCell>
        <mxCell id="V6oRm1_Ef8_PO-AJIa_W-247" value="" style="endArrow=classic;html=1;rounded=0;" edge="1" parent="1">
          <mxGeometry width="50" height="50" relative="1" as="geometry">
            <mxPoint x="4540" y="540" as="sourcePoint" />
            <mxPoint x="4540" y="650" as="targetPoint" />
          </mxGeometry>
        </mxCell>
        <mxCell id="V6oRm1_Ef8_PO-AJIa_W-248" value="btnReset is clicked" style="rhombus;whiteSpace=wrap;html=1;" vertex="1" parent="1">
          <mxGeometry x="4500" y="650" width="80" height="80" as="geometry" />
        </mxCell>
        <mxCell id="V6oRm1_Ef8_PO-AJIa_W-249" value="" style="endArrow=classic;html=1;rounded=0;" edge="1" parent="1" source="V6oRm1_Ef8_PO-AJIa_W-248">
          <mxGeometry width="50" height="50" relative="1" as="geometry">
            <mxPoint x="4580" y="740" as="sourcePoint" />
            <mxPoint x="4650.710678118655" y="690" as="targetPoint" />
          </mxGeometry>
        </mxCell>
        <mxCell id="V6oRm1_Ef8_PO-AJIa_W-250" value="true" style="rounded=0;whiteSpace=wrap;html=1;" vertex="1" parent="1">
          <mxGeometry x="4650" y="660" width="120" height="60" as="geometry" />
        </mxCell>
        <mxCell id="V6oRm1_Ef8_PO-AJIa_W-251" value="" style="endArrow=classic;html=1;rounded=0;" edge="1" parent="1" source="V6oRm1_Ef8_PO-AJIa_W-250">
          <mxGeometry width="50" height="50" relative="1" as="geometry">
            <mxPoint x="4710" y="770" as="sourcePoint" />
            <mxPoint x="4710" y="790.7106781186548" as="targetPoint" />
          </mxGeometry>
        </mxCell>
        <mxCell id="V6oRm1_Ef8_PO-AJIa_W-252" value="intWins = intTies = intLosses = intRocks = intPapers = intScissors = 0" style="rounded=0;whiteSpace=wrap;html=1;" vertex="1" parent="1">
          <mxGeometry x="4650" y="790" width="120" height="60" as="geometry" />
        </mxCell>
        <mxCell id="V6oRm1_Ef8_PO-AJIa_W-253" value="" style="endArrow=classic;html=1;rounded=0;" edge="1" parent="1" source="V6oRm1_Ef8_PO-AJIa_W-252">
          <mxGeometry width="50" height="50" relative="1" as="geometry">
            <mxPoint x="4710" y="900" as="sourcePoint" />
            <mxPoint x="4710" y="920.7106781186548" as="targetPoint" />
          </mxGeometry>
        </mxCell>
        <mxCell id="V6oRm1_Ef8_PO-AJIa_W-254" value="i = 0" style="rounded=0;whiteSpace=wrap;html=1;" vertex="1" parent="1">
          <mxGeometry x="4650" y="920" width="120" height="60" as="geometry" />
        </mxCell>
        <mxCell id="V6oRm1_Ef8_PO-AJIa_W-255" value="" style="endArrow=classic;html=1;rounded=0;" edge="1" parent="1" source="V6oRm1_Ef8_PO-AJIa_W-254">
          <mxGeometry width="50" height="50" relative="1" as="geometry">
            <mxPoint x="4710" y="1030" as="sourcePoint" />
            <mxPoint x="4710" y="1050.7106781186549" as="targetPoint" />
          </mxGeometry>
        </mxCell>
        <mxCell id="V6oRm1_Ef8_PO-AJIa_W-256" value="i &amp;lt; INTMAXROUNDS" style="rhombus;whiteSpace=wrap;html=1;" vertex="1" parent="1">
          <mxGeometry x="4630" y="1050" width="160" height="80" as="geometry" />
        </mxCell>
        <mxCell id="V6oRm1_Ef8_PO-AJIa_W-257" value="" style="endArrow=classic;html=1;rounded=0;" edge="1" parent="1" source="V6oRm1_Ef8_PO-AJIa_W-256">
          <mxGeometry width="50" height="50" relative="1" as="geometry">
            <mxPoint x="4790" y="1140" as="sourcePoint" />
            <mxPoint x="4860.710678118655" y="1090" as="targetPoint" />
          </mxGeometry>
        </mxCell>
        <mxCell id="V6oRm1_Ef8_PO-AJIa_W-258" value="true" style="rounded=0;whiteSpace=wrap;html=1;" vertex="1" parent="1">
          <mxGeometry x="4860" y="1060" width="120" height="60" as="geometry" />
        </mxCell>
        <mxCell id="V6oRm1_Ef8_PO-AJIa_W-259" value="" style="endArrow=classic;html=1;rounded=0;" edge="1" parent="1" source="V6oRm1_Ef8_PO-AJIa_W-258">
          <mxGeometry width="50" height="50" relative="1" as="geometry">
            <mxPoint x="4920" y="1170" as="sourcePoint" />
            <mxPoint x="4920" y="1190.7106781186549" as="targetPoint" />
          </mxGeometry>
        </mxCell>
        <mxCell id="V6oRm1_Ef8_PO-AJIa_W-260" value="intUsersPastObj[i] = intComputerPastObj[i] = intPastResults[i] = -1;" style="rounded=0;whiteSpace=wrap;html=1;" vertex="1" parent="1">
          <mxGeometry x="4860" y="1190" width="120" height="60" as="geometry" />
        </mxCell>
        <mxCell id="V6oRm1_Ef8_PO-AJIa_W-261" value="" style="endArrow=classic;html=1;rounded=0;" edge="1" parent="1" source="V6oRm1_Ef8_PO-AJIa_W-260">
          <mxGeometry width="50" height="50" relative="1" as="geometry">
            <mxPoint x="4920" y="1300" as="sourcePoint" />
            <mxPoint x="4920" y="1320.7106781186549" as="targetPoint" />
          </mxGeometry>
        </mxCell>
        <mxCell id="V6oRm1_Ef8_PO-AJIa_W-263" style="edgeStyle=orthogonalEdgeStyle;rounded=0;orthogonalLoop=1;jettySize=auto;html=1;exitX=0.5;exitY=1;exitDx=0;exitDy=0;entryX=0.5;entryY=1;entryDx=0;entryDy=0;" edge="1" parent="1" source="V6oRm1_Ef8_PO-AJIa_W-262" target="V6oRm1_Ef8_PO-AJIa_W-256">
          <mxGeometry relative="1" as="geometry" />
        </mxCell>
        <mxCell id="V6oRm1_Ef8_PO-AJIa_W-262" value="i++" style="rounded=0;whiteSpace=wrap;html=1;" vertex="1" parent="1">
          <mxGeometry x="4860" y="1320" width="120" height="60" as="geometry" />
        </mxCell>
        <mxCell id="V6oRm1_Ef8_PO-AJIa_W-265" value="" style="endArrow=classic;html=1;rounded=0;" edge="1" parent="1" source="V6oRm1_Ef8_PO-AJIa_W-256">
          <mxGeometry width="50" height="50" relative="1" as="geometry">
            <mxPoint x="4559.289321881345" y="1140" as="sourcePoint" />
            <mxPoint x="4559.289321881345" y="1090" as="targetPoint" />
          </mxGeometry>
        </mxCell>
        <mxCell id="V6oRm1_Ef8_PO-AJIa_W-266" value="false" style="rounded=0;whiteSpace=wrap;html=1;" vertex="1" parent="1">
          <mxGeometry x="4440" y="1060" width="120" height="60" as="geometry" />
        </mxCell>
        <mxCell id="V6oRm1_Ef8_PO-AJIa_W-267" value="" style="endArrow=classic;html=1;rounded=0;" edge="1" parent="1" source="V6oRm1_Ef8_PO-AJIa_W-266">
          <mxGeometry width="50" height="50" relative="1" as="geometry">
            <mxPoint x="4500" y="1170" as="sourcePoint" />
            <mxPoint x="4500" y="1190.7106781186549" as="targetPoint" />
          </mxGeometry>
        </mxCell>
        <mxCell id="V6oRm1_Ef8_PO-AJIa_W-268" value="intRoundsTot = 5, intRoundsLeft = 5" style="rounded=0;whiteSpace=wrap;html=1;" vertex="1" parent="1">
          <mxGeometry x="4440" y="1190" width="120" height="60" as="geometry" />
        </mxCell>
        <mxCell id="V6oRm1_Ef8_PO-AJIa_W-269" value="" style="endArrow=classic;html=1;rounded=0;" edge="1" parent="1" source="V6oRm1_Ef8_PO-AJIa_W-268">
          <mxGeometry width="50" height="50" relative="1" as="geometry">
            <mxPoint x="4500" y="1300" as="sourcePoint" />
            <mxPoint x="4500" y="1320.7106781186549" as="targetPoint" />
          </mxGeometry>
        </mxCell>
        <mxCell id="V6oRm1_Ef8_PO-AJIa_W-271" style="edgeStyle=orthogonalEdgeStyle;rounded=0;orthogonalLoop=1;jettySize=auto;html=1;exitX=0.5;exitY=1;exitDx=0;exitDy=0;entryX=0.5;entryY=1;entryDx=0;entryDy=0;" edge="1" parent="1" source="V6oRm1_Ef8_PO-AJIa_W-270" target="V6oRm1_Ef8_PO-AJIa_W-33">
          <mxGeometry relative="1" as="geometry">
            <Array as="points">
              <mxPoint x="4500" y="5240" />
              <mxPoint x="1885" y="5240" />
            </Array>
          </mxGeometry>
        </mxCell>
        <mxCell id="V6oRm1_Ef8_PO-AJIa_W-270" value="&lt;div&gt;lblWins.setText(&quot;Wins: 0&quot;)&lt;/div&gt;&lt;div&gt;&lt;span style=&quot;background-color: initial;&quot;&gt;lblLosses.setText(&quot;Losses: 0&quot;)&lt;/span&gt;&lt;/div&gt;&lt;div&gt;&lt;span style=&quot;background-color: initial;&quot;&gt;lblTies.setText(&quot;Ties: 0&quot;)&lt;/span&gt;&lt;br&gt;&lt;/div&gt;&lt;div&gt;&lt;span style=&quot;background-color: initial;&quot;&gt;lblWinPercent.setText(&quot;Win %: 0.00&quot;)&lt;/span&gt;&lt;br&gt;&lt;/div&gt;&lt;div&gt;&lt;span style=&quot;background-color: initial;&quot;&gt;&amp;nbsp; lblLossPercent.setText(&quot;Loss %: 0.00&quot;)&lt;/span&gt;&lt;br&gt;&lt;/div&gt;&lt;div&gt;&lt;span style=&quot;background-color: initial;&quot;&gt;lblTiePercent.setText(&quot;Tie %: 0.00&quot;)&lt;/span&gt;&lt;br&gt;&lt;/div&gt;&lt;div&gt;&lt;span style=&quot;background-color: initial;&quot;&gt;blRocksPlayed.setText(&quot;Number of times Rock has been played: 0&quot;)&lt;/span&gt;&lt;br&gt;&lt;/div&gt;&lt;div&gt;&lt;span style=&quot;background-color: initial;&quot;&gt;lblPapersPlayed.setText(&quot;Number of times Paper has been played: 0&quot;)&lt;/span&gt;&lt;br&gt;&lt;/div&gt;&lt;div&gt;&lt;span style=&quot;background-color: initial;&quot;&gt;lblScissorsPlayed.setText(&quot;Number of times Scissors has been played: 0&quot;)&lt;/span&gt;&lt;br&gt;&lt;/div&gt;&lt;div&gt;&lt;span style=&quot;background-color: initial;&quot;&gt;lblResult.setText(&quot;Round n: Computer played &amp;lt;object&amp;gt;. You played &amp;lt;object&amp;gt; &amp;lt;Computer/Player&amp;gt; Won!&quot;)&lt;/span&gt;&lt;/div&gt;&lt;div&gt;&lt;span style=&quot;background-color: initial;&quot;&gt;&amp;nbsp;lblObjectErrorMsg.setText(&quot;&quot;)&lt;/span&gt;&lt;/div&gt;&lt;div&gt;&lt;span style=&quot;background-color: initial;&quot;&gt;lblNumRoundsErrorMsg.setText(&quot;&quot;)&lt;/span&gt;&lt;br&gt;&lt;/div&gt;" style="shape=parallelogram;perimeter=parallelogramPerimeter;whiteSpace=wrap;html=1;fixedSize=1;" vertex="1" parent="1">
          <mxGeometry x="4375" y="1320" width="250" height="270" as="geometry" />
        </mxCell>
        <mxCell id="V6oRm1_Ef8_PO-AJIa_W-272" value="" style="endArrow=classic;html=1;rounded=0;" edge="1" parent="1" source="V6oRm1_Ef8_PO-AJIa_W-33">
          <mxGeometry width="50" height="50" relative="1" as="geometry">
            <mxPoint x="1579.2893218813451" y="430" as="sourcePoint" />
            <mxPoint x="1579.2893218813451" y="380" as="targetPoint" />
          </mxGeometry>
        </mxCell>
        <mxCell id="V6oRm1_Ef8_PO-AJIa_W-273" value="false" style="rounded=0;whiteSpace=wrap;html=1;" vertex="1" parent="1">
          <mxGeometry x="1460" y="350" width="120" height="60" as="geometry" />
        </mxCell>
        <mxCell id="V6oRm1_Ef8_PO-AJIa_W-274" value="" style="endArrow=classic;html=1;rounded=0;entryX=0.5;entryY=0;entryDx=0;entryDy=0;" edge="1" parent="1" source="V6oRm1_Ef8_PO-AJIa_W-273" target="V6oRm1_Ef8_PO-AJIa_W-275">
          <mxGeometry width="50" height="50" relative="1" as="geometry">
            <mxPoint x="1520" y="460" as="sourcePoint" />
            <mxPoint x="1520" y="480.71067811865476" as="targetPoint" />
          </mxGeometry>
        </mxCell>
        <mxCell id="V6oRm1_Ef8_PO-AJIa_W-275" value="end" style="ellipse;whiteSpace=wrap;html=1;" vertex="1" parent="1">
          <mxGeometry x="1460" y="480" width="120" height="80" as="geometry" />
        </mxCell>
        <mxCell id="V6oRm1_Ef8_PO-AJIa_W-276" value="START (whoWon method)" style="ellipse;whiteSpace=wrap;html=1;" vertex="1" parent="1">
          <mxGeometry x="860" width="120" height="80" as="geometry" />
        </mxCell>
        <mxCell id="V6oRm1_Ef8_PO-AJIa_W-277" value="" style="endArrow=classic;html=1;rounded=0;" edge="1" parent="1" source="V6oRm1_Ef8_PO-AJIa_W-276">
          <mxGeometry width="50" height="50" relative="1" as="geometry">
            <mxPoint x="920" y="130" as="sourcePoint" />
            <mxPoint x="920" y="150.71067811865476" as="targetPoint" />
          </mxGeometry>
        </mxCell>
        <mxCell id="V6oRm1_Ef8_PO-AJIa_W-279" value="int intUserObj, int intComputerObj" style="rounded=0;whiteSpace=wrap;html=1;" vertex="1" parent="1">
          <mxGeometry x="860" y="150" width="120" height="60" as="geometry" />
        </mxCell>
        <mxCell id="V6oRm1_Ef8_PO-AJIa_W-281" value="" style="endArrow=classic;html=1;rounded=0;" edge="1" parent="1" source="V6oRm1_Ef8_PO-AJIa_W-279">
          <mxGeometry width="50" height="50" relative="1" as="geometry">
            <mxPoint x="920" y="260" as="sourcePoint" />
            <mxPoint x="920" y="280.71067811865476" as="targetPoint" />
          </mxGeometry>
        </mxCell>
        <mxCell id="V6oRm1_Ef8_PO-AJIa_W-282" value="if (intUserObj == intComputerObj)&amp;nbsp;" style="rhombus;whiteSpace=wrap;html=1;" vertex="1" parent="1">
          <mxGeometry x="860" y="280" width="130" height="80" as="geometry" />
        </mxCell>
        <mxCell id="V6oRm1_Ef8_PO-AJIa_W-283" value="" style="endArrow=classic;html=1;rounded=0;entryX=0;entryY=0.5;entryDx=0;entryDy=0;" edge="1" parent="1" source="V6oRm1_Ef8_PO-AJIa_W-282" target="V6oRm1_Ef8_PO-AJIa_W-284">
          <mxGeometry width="50" height="50" relative="1" as="geometry">
            <mxPoint x="985" y="370" as="sourcePoint" />
            <mxPoint x="1055.7106781186549" y="320" as="targetPoint" />
          </mxGeometry>
        </mxCell>
        <mxCell id="V6oRm1_Ef8_PO-AJIa_W-284" value="true" style="rounded=0;whiteSpace=wrap;html=1;" vertex="1" parent="1">
          <mxGeometry x="1030" y="290" width="120" height="60" as="geometry" />
        </mxCell>
        <mxCell id="V6oRm1_Ef8_PO-AJIa_W-286" value="" style="endArrow=classic;html=1;rounded=0;entryX=0.5;entryY=0;entryDx=0;entryDy=0;" edge="1" parent="1" source="V6oRm1_Ef8_PO-AJIa_W-284" target="V6oRm1_Ef8_PO-AJIa_W-287">
          <mxGeometry width="50" height="50" relative="1" as="geometry">
            <mxPoint x="1090" y="400" as="sourcePoint" />
            <mxPoint x="1090" y="420.71067811865476" as="targetPoint" />
          </mxGeometry>
        </mxCell>
        <mxCell id="V6oRm1_Ef8_PO-AJIa_W-378" style="edgeStyle=orthogonalEdgeStyle;rounded=0;orthogonalLoop=1;jettySize=auto;html=1;exitX=0.5;exitY=1;exitDx=0;exitDy=0;entryX=0.5;entryY=0;entryDx=0;entryDy=0;" edge="1" parent="1" source="V6oRm1_Ef8_PO-AJIa_W-287" target="V6oRm1_Ef8_PO-AJIa_W-372">
          <mxGeometry relative="1" as="geometry">
            <Array as="points">
              <mxPoint x="1090" y="510" />
              <mxPoint x="1220" y="510" />
              <mxPoint x="1220" y="1080" />
              <mxPoint x="730" y="1080" />
            </Array>
          </mxGeometry>
        </mxCell>
        <mxCell id="V6oRm1_Ef8_PO-AJIa_W-287" value="return 2" style="rounded=0;whiteSpace=wrap;html=1;" vertex="1" parent="1">
          <mxGeometry x="1030" y="430" width="120" height="60" as="geometry" />
        </mxCell>
        <mxCell id="V6oRm1_Ef8_PO-AJIa_W-288" value="" style="endArrow=classic;html=1;rounded=0;" edge="1" parent="1">
          <mxGeometry width="50" height="50" relative="1" as="geometry">
            <mxPoint x="860" y="319.79" as="sourcePoint" />
            <mxPoint x="830" y="319.79" as="targetPoint" />
          </mxGeometry>
        </mxCell>
        <mxCell id="V6oRm1_Ef8_PO-AJIa_W-290" value="false" style="rounded=0;whiteSpace=wrap;html=1;" vertex="1" parent="1">
          <mxGeometry x="700" y="290" width="130" height="60" as="geometry" />
        </mxCell>
        <mxCell id="V6oRm1_Ef8_PO-AJIa_W-298" value="" style="endArrow=classic;html=1;rounded=0;" edge="1" parent="1">
          <mxGeometry width="50" height="50" relative="1" as="geometry">
            <mxPoint x="764.8299999999999" y="350" as="sourcePoint" />
            <mxPoint x="764.8299999999999" y="420" as="targetPoint" />
          </mxGeometry>
        </mxCell>
        <mxCell id="V6oRm1_Ef8_PO-AJIa_W-316" value="if (intUserObj &amp;gt; intComputerObj)" style="rhombus;whiteSpace=wrap;html=1;" vertex="1" parent="1">
          <mxGeometry x="700" y="420" width="130" height="80" as="geometry" />
        </mxCell>
        <mxCell id="V6oRm1_Ef8_PO-AJIa_W-317" value="" style="endArrow=classic;html=1;rounded=0;entryX=0;entryY=0.5;entryDx=0;entryDy=0;" edge="1" parent="1" source="V6oRm1_Ef8_PO-AJIa_W-316" target="V6oRm1_Ef8_PO-AJIa_W-318">
          <mxGeometry width="50" height="50" relative="1" as="geometry">
            <mxPoint x="825" y="510" as="sourcePoint" />
            <mxPoint x="895.7106781186548" y="460" as="targetPoint" />
          </mxGeometry>
        </mxCell>
        <mxCell id="V6oRm1_Ef8_PO-AJIa_W-318" value="true" style="rounded=0;whiteSpace=wrap;html=1;" vertex="1" parent="1">
          <mxGeometry x="870" y="430" width="120" height="60" as="geometry" />
        </mxCell>
        <mxCell id="V6oRm1_Ef8_PO-AJIa_W-319" value="" style="endArrow=classic;html=1;rounded=0;" edge="1" parent="1" source="V6oRm1_Ef8_PO-AJIa_W-318">
          <mxGeometry width="50" height="50" relative="1" as="geometry">
            <mxPoint x="930" y="540" as="sourcePoint" />
            <mxPoint x="930" y="560.7106781186548" as="targetPoint" />
          </mxGeometry>
        </mxCell>
        <mxCell id="V6oRm1_Ef8_PO-AJIa_W-321" value="" style="endArrow=classic;html=1;rounded=0;entryX=1;entryY=0.5;entryDx=0;entryDy=0;" edge="1" parent="1" target="V6oRm1_Ef8_PO-AJIa_W-322">
          <mxGeometry width="50" height="50" relative="1" as="geometry">
            <mxPoint x="700" y="459.79" as="sourcePoint" />
            <mxPoint x="670" y="459.79" as="targetPoint" />
          </mxGeometry>
        </mxCell>
        <mxCell id="V6oRm1_Ef8_PO-AJIa_W-322" value="false" style="rounded=0;whiteSpace=wrap;html=1;" vertex="1" parent="1">
          <mxGeometry x="240" y="430" width="120" height="60" as="geometry" />
        </mxCell>
        <mxCell id="V6oRm1_Ef8_PO-AJIa_W-323" value="" style="endArrow=classic;html=1;rounded=0;" edge="1" parent="1">
          <mxGeometry width="50" height="50" relative="1" as="geometry">
            <mxPoint x="300" y="490" as="sourcePoint" />
            <mxPoint x="300" y="560" as="targetPoint" />
          </mxGeometry>
        </mxCell>
        <mxCell id="V6oRm1_Ef8_PO-AJIa_W-333" value="intUserObj == 2 &amp;amp;&amp;amp; intComputerObj == 0" style="rhombus;whiteSpace=wrap;html=1;" vertex="1" parent="1">
          <mxGeometry x="865" y="560" width="130" height="80" as="geometry" />
        </mxCell>
        <mxCell id="V6oRm1_Ef8_PO-AJIa_W-334" value="" style="endArrow=classic;html=1;rounded=0;" edge="1" parent="1" source="V6oRm1_Ef8_PO-AJIa_W-333">
          <mxGeometry width="50" height="50" relative="1" as="geometry">
            <mxPoint x="995" y="650" as="sourcePoint" />
            <mxPoint x="1065.7106781186549" y="600" as="targetPoint" />
          </mxGeometry>
        </mxCell>
        <mxCell id="V6oRm1_Ef8_PO-AJIa_W-335" value="" style="endArrow=classic;html=1;rounded=0;" edge="1" parent="1" source="V6oRm1_Ef8_PO-AJIa_W-333">
          <mxGeometry width="50" height="50" relative="1" as="geometry">
            <mxPoint x="794.2893218813452" y="650" as="sourcePoint" />
            <mxPoint x="794.2893218813452" y="600" as="targetPoint" />
          </mxGeometry>
        </mxCell>
        <mxCell id="V6oRm1_Ef8_PO-AJIa_W-336" value="false" style="rounded=0;whiteSpace=wrap;html=1;" vertex="1" parent="1">
          <mxGeometry x="670" y="570" width="120" height="60" as="geometry" />
        </mxCell>
        <mxCell id="V6oRm1_Ef8_PO-AJIa_W-337" value="true" style="rounded=0;whiteSpace=wrap;html=1;" vertex="1" parent="1">
          <mxGeometry x="1060" y="570" width="120" height="60" as="geometry" />
        </mxCell>
        <mxCell id="V6oRm1_Ef8_PO-AJIa_W-338" value="" style="endArrow=classic;html=1;rounded=0;" edge="1" parent="1" source="V6oRm1_Ef8_PO-AJIa_W-337">
          <mxGeometry width="50" height="50" relative="1" as="geometry">
            <mxPoint x="1120" y="680" as="sourcePoint" />
            <mxPoint x="1120" y="700.7106781186548" as="targetPoint" />
          </mxGeometry>
        </mxCell>
        <mxCell id="V6oRm1_Ef8_PO-AJIa_W-339" value="" style="endArrow=classic;html=1;rounded=0;" edge="1" parent="1" source="V6oRm1_Ef8_PO-AJIa_W-336">
          <mxGeometry width="50" height="50" relative="1" as="geometry">
            <mxPoint x="730" y="680" as="sourcePoint" />
            <mxPoint x="730" y="700.7106781186548" as="targetPoint" />
          </mxGeometry>
        </mxCell>
        <mxCell id="V6oRm1_Ef8_PO-AJIa_W-373" style="edgeStyle=orthogonalEdgeStyle;rounded=0;orthogonalLoop=1;jettySize=auto;html=1;exitX=0.5;exitY=1;exitDx=0;exitDy=0;entryX=0.5;entryY=0;entryDx=0;entryDy=0;" edge="1" parent="1" source="V6oRm1_Ef8_PO-AJIa_W-340" target="V6oRm1_Ef8_PO-AJIa_W-372">
          <mxGeometry relative="1" as="geometry" />
        </mxCell>
        <mxCell id="V6oRm1_Ef8_PO-AJIa_W-340" value="return 1" style="rounded=0;whiteSpace=wrap;html=1;" vertex="1" parent="1">
          <mxGeometry x="670" y="700" width="120" height="60" as="geometry" />
        </mxCell>
        <mxCell id="V6oRm1_Ef8_PO-AJIa_W-374" style="edgeStyle=orthogonalEdgeStyle;rounded=0;orthogonalLoop=1;jettySize=auto;html=1;exitX=0.5;exitY=1;exitDx=0;exitDy=0;entryX=0.5;entryY=0;entryDx=0;entryDy=0;" edge="1" parent="1" source="V6oRm1_Ef8_PO-AJIa_W-341" target="V6oRm1_Ef8_PO-AJIa_W-372">
          <mxGeometry relative="1" as="geometry">
            <Array as="points">
              <mxPoint x="1120" y="1080" />
              <mxPoint x="730" y="1080" />
            </Array>
          </mxGeometry>
        </mxCell>
        <mxCell id="V6oRm1_Ef8_PO-AJIa_W-341" value="return 0" style="rounded=0;whiteSpace=wrap;html=1;" vertex="1" parent="1">
          <mxGeometry x="1060" y="700" width="120" height="60" as="geometry" />
        </mxCell>
        <mxCell id="V6oRm1_Ef8_PO-AJIa_W-352" value="if (intUserObj &amp;lt; intComputerObj)" style="rhombus;whiteSpace=wrap;html=1;" vertex="1" parent="1">
          <mxGeometry x="235" y="560" width="130" height="80" as="geometry" />
        </mxCell>
        <mxCell id="V6oRm1_Ef8_PO-AJIa_W-353" value="" style="endArrow=classic;html=1;rounded=0;entryX=0;entryY=0.5;entryDx=0;entryDy=0;" edge="1" parent="1" source="V6oRm1_Ef8_PO-AJIa_W-352" target="V6oRm1_Ef8_PO-AJIa_W-356">
          <mxGeometry width="50" height="50" relative="1" as="geometry">
            <mxPoint x="365" y="650" as="sourcePoint" />
            <mxPoint x="435.71067811865487" y="600" as="targetPoint" />
          </mxGeometry>
        </mxCell>
        <mxCell id="V6oRm1_Ef8_PO-AJIa_W-354" value="" style="endArrow=classic;html=1;rounded=0;" edge="1" parent="1" source="V6oRm1_Ef8_PO-AJIa_W-352">
          <mxGeometry width="50" height="50" relative="1" as="geometry">
            <mxPoint x="164.28932188134524" y="650" as="sourcePoint" />
            <mxPoint x="164.28932188134524" y="600" as="targetPoint" />
          </mxGeometry>
        </mxCell>
        <mxCell id="V6oRm1_Ef8_PO-AJIa_W-355" value="false" style="rounded=0;whiteSpace=wrap;html=1;" vertex="1" parent="1">
          <mxGeometry x="40" y="570" width="120" height="60" as="geometry" />
        </mxCell>
        <mxCell id="V6oRm1_Ef8_PO-AJIa_W-356" value="true" style="rounded=0;whiteSpace=wrap;html=1;" vertex="1" parent="1">
          <mxGeometry x="390" y="570" width="120" height="60" as="geometry" />
        </mxCell>
        <mxCell id="V6oRm1_Ef8_PO-AJIa_W-358" value="" style="endArrow=classic;html=1;rounded=0;" edge="1" parent="1" source="V6oRm1_Ef8_PO-AJIa_W-355">
          <mxGeometry width="50" height="50" relative="1" as="geometry">
            <mxPoint x="100" y="680" as="sourcePoint" />
            <mxPoint x="100" y="700.7106781186548" as="targetPoint" />
          </mxGeometry>
        </mxCell>
        <mxCell id="V6oRm1_Ef8_PO-AJIa_W-377" style="edgeStyle=orthogonalEdgeStyle;rounded=0;orthogonalLoop=1;jettySize=auto;html=1;exitX=0.5;exitY=1;exitDx=0;exitDy=0;entryX=0.5;entryY=0;entryDx=0;entryDy=0;" edge="1" parent="1" source="V6oRm1_Ef8_PO-AJIa_W-359" target="V6oRm1_Ef8_PO-AJIa_W-372">
          <mxGeometry relative="1" as="geometry">
            <Array as="points">
              <mxPoint x="100" y="1080" />
              <mxPoint x="730" y="1080" />
            </Array>
          </mxGeometry>
        </mxCell>
        <mxCell id="V6oRm1_Ef8_PO-AJIa_W-359" value="return -1" style="rounded=0;whiteSpace=wrap;html=1;" vertex="1" parent="1">
          <mxGeometry x="40" y="700" width="120" height="60" as="geometry" />
        </mxCell>
        <mxCell id="V6oRm1_Ef8_PO-AJIa_W-361" value="" style="endArrow=classic;html=1;rounded=0;exitX=0.5;exitY=1;exitDx=0;exitDy=0;entryX=0.5;entryY=0;entryDx=0;entryDy=0;" edge="1" parent="1" source="V6oRm1_Ef8_PO-AJIa_W-356" target="V6oRm1_Ef8_PO-AJIa_W-362">
          <mxGeometry width="50" height="50" relative="1" as="geometry">
            <mxPoint x="480" y="629.9999999999998" as="sourcePoint" />
            <mxPoint x="490" y="765" as="targetPoint" />
          </mxGeometry>
        </mxCell>
        <mxCell id="V6oRm1_Ef8_PO-AJIa_W-362" value="if (intUserObj == 0 &amp;amp;&amp;amp; intComputerObj == 2)" style="rhombus;whiteSpace=wrap;html=1;" vertex="1" parent="1">
          <mxGeometry x="385" y="770" width="130" height="80" as="geometry" />
        </mxCell>
        <mxCell id="V6oRm1_Ef8_PO-AJIa_W-363" value="" style="endArrow=classic;html=1;rounded=0;" edge="1" parent="1" source="V6oRm1_Ef8_PO-AJIa_W-362">
          <mxGeometry width="50" height="50" relative="1" as="geometry">
            <mxPoint x="515" y="860" as="sourcePoint" />
            <mxPoint x="585.7106781186549" y="810" as="targetPoint" />
          </mxGeometry>
        </mxCell>
        <mxCell id="V6oRm1_Ef8_PO-AJIa_W-364" value="" style="endArrow=classic;html=1;rounded=0;" edge="1" parent="1" source="V6oRm1_Ef8_PO-AJIa_W-362">
          <mxGeometry width="50" height="50" relative="1" as="geometry">
            <mxPoint x="314.28932188134524" y="860" as="sourcePoint" />
            <mxPoint x="314.28932188134524" y="810" as="targetPoint" />
          </mxGeometry>
        </mxCell>
        <mxCell id="V6oRm1_Ef8_PO-AJIa_W-365" value="false" style="rounded=0;whiteSpace=wrap;html=1;" vertex="1" parent="1">
          <mxGeometry x="190" y="780" width="120" height="60" as="geometry" />
        </mxCell>
        <mxCell id="V6oRm1_Ef8_PO-AJIa_W-366" value="true" style="rounded=0;whiteSpace=wrap;html=1;" vertex="1" parent="1">
          <mxGeometry x="580" y="780" width="120" height="60" as="geometry" />
        </mxCell>
        <mxCell id="V6oRm1_Ef8_PO-AJIa_W-367" value="" style="endArrow=classic;html=1;rounded=0;" edge="1" parent="1" source="V6oRm1_Ef8_PO-AJIa_W-366">
          <mxGeometry width="50" height="50" relative="1" as="geometry">
            <mxPoint x="640" y="890" as="sourcePoint" />
            <mxPoint x="640" y="910.7106781186548" as="targetPoint" />
          </mxGeometry>
        </mxCell>
        <mxCell id="V6oRm1_Ef8_PO-AJIa_W-368" value="" style="endArrow=classic;html=1;rounded=0;" edge="1" parent="1" source="V6oRm1_Ef8_PO-AJIa_W-365">
          <mxGeometry width="50" height="50" relative="1" as="geometry">
            <mxPoint x="250" y="890" as="sourcePoint" />
            <mxPoint x="250" y="910.7106781186548" as="targetPoint" />
          </mxGeometry>
        </mxCell>
        <mxCell id="V6oRm1_Ef8_PO-AJIa_W-376" style="edgeStyle=orthogonalEdgeStyle;rounded=0;orthogonalLoop=1;jettySize=auto;html=1;exitX=0.5;exitY=1;exitDx=0;exitDy=0;entryX=0.5;entryY=0;entryDx=0;entryDy=0;" edge="1" parent="1" source="V6oRm1_Ef8_PO-AJIa_W-369" target="V6oRm1_Ef8_PO-AJIa_W-372">
          <mxGeometry relative="1" as="geometry">
            <Array as="points">
              <mxPoint x="250" y="1080" />
              <mxPoint x="730" y="1080" />
            </Array>
          </mxGeometry>
        </mxCell>
        <mxCell id="V6oRm1_Ef8_PO-AJIa_W-369" value="return 0" style="rounded=0;whiteSpace=wrap;html=1;" vertex="1" parent="1">
          <mxGeometry x="190" y="910" width="120" height="60" as="geometry" />
        </mxCell>
        <mxCell id="V6oRm1_Ef8_PO-AJIa_W-375" style="edgeStyle=orthogonalEdgeStyle;rounded=0;orthogonalLoop=1;jettySize=auto;html=1;exitX=0.5;exitY=1;exitDx=0;exitDy=0;entryX=0.5;entryY=0;entryDx=0;entryDy=0;" edge="1" parent="1" source="V6oRm1_Ef8_PO-AJIa_W-370" target="V6oRm1_Ef8_PO-AJIa_W-372">
          <mxGeometry relative="1" as="geometry">
            <mxPoint x="770" y="1190" as="targetPoint" />
            <Array as="points">
              <mxPoint x="640" y="1080" />
              <mxPoint x="730" y="1080" />
            </Array>
          </mxGeometry>
        </mxCell>
        <mxCell id="V6oRm1_Ef8_PO-AJIa_W-370" value="return 1" style="rounded=0;whiteSpace=wrap;html=1;" vertex="1" parent="1">
          <mxGeometry x="580" y="910" width="120" height="60" as="geometry" />
        </mxCell>
        <mxCell id="V6oRm1_Ef8_PO-AJIa_W-372" value="END" style="ellipse;whiteSpace=wrap;html=1;" vertex="1" parent="1">
          <mxGeometry x="670" y="1190" width="120" height="80" as="geometry" />
        </mxCell>
      </root>
    </mxGraphModel>
  </diagram>
</mxfile>
